<svg xmlns="http://www.w3.org/2000/svg" xmlns:xlink="http://www.w3.org/1999/xlink" viewBox="0 0 427 268"><defs><style>.cls-1{fill:#f15a24;}.cls-2{fill:#0052a6;}.cls-3{fill:#fff;}.cls-4{isolation:isolate;}.cls-5{clip-path:url(#clip-path);}.cls-6{mix-blend-mode:color-burn;}.cls-7{fill:none;stroke:#000;stroke-linecap:round;stroke-linejoin:round;stroke-width:3px;}.cls-8{clip-path:url(#clip-path-2);}.cls-9{clip-path:url(#clip-path-3);}.cls-10{clip-path:url(#clip-path-4);}</style><clipPath id="clip-path"><path class="cls-1" d="M105.85,486.93l69.47,46.49,6.37-85.25L220,533.42s28.64-60.31,53.74-90.61c1.43,34.72-5.95,103.92-5.95,103.92l75.26-35-36.86,55.92,57.64,37-65.42,10.82L331.42,694l-60.8-41.16-50.35,80.38-10-63.49-75.19,44.14,28.14-55L82.43,671,114,620l-95.76-1.21L98.29,590.5,33.34,548.79,134.2,554Z"/></clipPath><clipPath id="clip-path-2"><path class="cls-2" d="M136.91,96.05C130.05,73.16,102.24,60,79.35,66.85s-38.52,30.9-38.23,54.79,15,46.42,35.38,58.87,45.71,15.45,69.22,11.12c12.74-2.34,26.59-8.14,31-20.32-8.29,13.45,2.83,31.68,17.3,38,25.87,11.36,60-6.43,65.55-34.14,6.27,20,28.31,30.92,49.11,33.12,22.86,2.42,47.27-3.65,63.92-19.5s23.8-42.15,14.2-63-37.18-32.56-57.63-22.06c11.8-12.21,22.54-26.17,27-42.56s1.56-35.61-10.77-47.29C330.82.05,307.63.28,288.45,6.33c-31.09,9.79-59.38,36.43-60.24,69-7-23.9-23.79-45.79-47.16-54.37s-52.89-1.09-66,20.09S111.28,95.08,136.91,96.05Z"/></clipPath><clipPath id="clip-path-3"><circle class="cls-3" cx="178.14" cy="107.49" r="28.49"/></clipPath><clipPath id="clip-path-4"><circle class="cls-3" cx="268.5" cy="107.49" r="28.49"/></clipPath><image id="image" width="3101" height="4462" xlink:href="../../../../Downloads/kiwihug-MS9Tnh3if1o-unsplash.jpg"/></defs><g class="cls-4"><g id="Ebene_1" data-name="Ebene 1"><path class="cls-1" d="M105.85,486.93l69.47,46.49,6.37-85.25L220,533.42s28.64-60.31,53.74-90.61c1.43,34.72-5.95,103.92-5.95,103.92l75.26-35-36.86,55.92,57.64,37-65.42,10.82L331.42,694l-60.8-41.16-50.35,80.38-10-63.49-75.19,44.14,28.14-55L82.43,671,114,620l-95.76-1.21L98.29,590.5,33.34,548.79,134.2,554Z"/><g class="cls-5"><use class="cls-6" transform="translate(-275 953) rotate(-90) scale(0.22)" xlink:href="#image"/></g><path class="cls-7" d="M188.61,188c-3.76,8.24-10,15.07-14.92,22.65s-8.74,16.7-6.76,25.54,9,15.24,15.78,21.15c-4.13-3.25-9.54-3.48-13.21-.82-3.16,2.29-5.14,6.81-3.88,8.18,1,1.1,4.62.68,16.56-6.78"/><path class="cls-7" d="M245.61,188c-3.76,8.24-10,15.07-14.92,22.65s-8.74,16.7-6.76,25.54,9,15.24,15.78,21.15c-4.13-3.25-9.54-3.48-13.21-.82-3.16,2.29-5.14,6.81-3.88,8.18,1,1.1,4.62.68,16.56-6.78"/><path class="cls-7" d="M8.18,22.07a7.43,7.43,0,0,1,3,3.47c.72,1.84.31,3.46.89,3.64s1.24-1.65,3-2.9a7.46,7.46,0,0,1,4.3-1.23"/><path class="cls-7" d="M14.63,22.11c-10.74,27-12.56,60.06,5.17,83.06,5.29,6.88,12.53,12.74,21.08,14.26"/><path class="cls-7" d="M8.18,22.07a7.43,7.43,0,0,1,3,3.47c.72,1.84.31,3.46.89,3.64s1.24-1.65,3-2.9a7.46,7.46,0,0,1,4.3-1.23"/><path class="cls-7" d="M14.63,22.11c-10.74,27-12.56,60.06,5.17,83.06,5.29,6.88,12.53,12.74,21.08,14.26"/><path class="cls-7" d="M420.31,36.05a7.31,7.31,0,0,0-3.91,2.44c-1.22,1.55-1.29,3.23-1.91,3.23s-.7-1.94-2.07-3.66a7.57,7.57,0,0,0-3.76-2.42"/><path class="cls-7" d="M414.11,34.22c2.5,28.93-5.31,61.13-28.91,78-7.06,5.06-15.69,8.58-24.31,7.57"/><path class="cls-2" d="M136.91,96.05C130.05,73.16,102.24,60,79.35,66.85s-38.52,30.9-38.23,54.79,15,46.42,35.38,58.87,45.71,15.45,69.22,11.12c12.74-2.34,26.59-8.14,31-20.32-8.29,13.45,2.83,31.68,17.3,38,25.87,11.36,60-6.43,65.55-34.14,6.27,20,28.31,30.92,49.11,33.12,22.86,2.42,47.27-3.65,63.92-19.5s23.8-42.15,14.2-63-37.18-32.56-57.63-22.06c11.8-12.21,22.54-26.17,27-42.56s1.56-35.61-10.77-47.29C330.82.05,307.63.28,288.45,6.33c-31.09,9.79-59.38,36.43-60.24,69-7-23.9-23.79-45.79-47.16-54.37s-52.89-1.09-66,20.09S111.28,95.08,136.91,96.05Z"/><g class="cls-8"><use class="cls-6" transform="translate(-217 447) rotate(-90) scale(0.22)" xlink:href="#image"/></g><circle class="cls-3" cx="178.14" cy="107.49" r="28.49"/><g class="cls-9"><circle cx="190.91" cy="99.46" r="16.29"/></g><circle class="cls-3" cx="268.5" cy="107.49" r="28.49"/><g class="cls-10"><circle cx="280.7" cy="99.46" r="16.29"/></g><circle class="cls-3" cx="178.5" cy="107.5" r="7.5"/><circle class="cls-3" cx="268.5" cy="107.5" r="7.5"/></g></g></svg>