<svg xmlns="http://www.w3.org/2000/svg" xmlns:xlink="http://www.w3.org/1999/xlink" viewBox="0 0 351.22 360.66"><defs><style>.cls-1{fill:#f15a24;}.cls-2{fill:#0052a6;}.cls-3{isolation:isolate;}.cls-4{fill:none;stroke:#000;stroke-linecap:round;stroke-linejoin:round;stroke-width:3px;}.cls-5{clip-path:url(#clip-path);}.cls-6{mix-blend-mode:color-burn;}.cls-7{clip-path:url(#clip-path-2);}</style><clipPath id="clip-path"><path class="cls-1" d="M89.85,45.93l69.47,46.49,6.37-85.25L204,92.42s28.64-60.31,53.74-90.61c1.43,34.72-5.95,103.92-5.95,103.92l75.26-35-36.86,55.92,57.64,37-65.42,10.82L315.42,253l-60.8-41.16-50.35,80.38-10-63.49-75.19,44.14,28.14-55L66.43,230,98,179,2.22,177.79,82.29,149.5,17.34,107.79,118.2,113Z"/></clipPath><clipPath id="clip-path-2"><path class="cls-2" d="M120.91-344.95c-6.86-22.89-34.67-36.07-57.56-29.2s-38.52,30.9-38.23,54.79,15,46.42,35.38,58.87,45.71,15.45,69.22,11.12c12.74-2.34,26.59-8.14,31-20.32-8.29,13.45,2.83,31.68,17.3,38,25.87,11.36,60-6.43,65.55-34.14,6.27,20,28.31,30.92,49.11,33.12,22.86,2.42,47.27-3.65,63.92-19.5s23.8-42.15,14.2-63-37.18-32.56-57.63-22.06c11.8-12.21,22.54-26.17,27-42.56s1.56-35.61-10.77-47.29c-14.61-13.82-37.8-13.59-57-7.54-31.09,9.79-59.38,36.43-60.24,69-7-23.9-23.79-45.79-47.16-54.37s-52.89-1.09-66,20.09S95.28-345.92,120.91-344.95Z"/></clipPath><image id="image" width="3101" height="4462" xlink:href="../../../../Downloads/kiwihug-MS9Tnh3if1o-unsplash.jpg"/></defs><g class="cls-3"><g id="Ebene_1" data-name="Ebene 1"><path class="cls-4" d="M115.06,184.45C81,215.28,64,263.78,71.2,309.12"/><path class="cls-4" d="M79.1,306.55a13.71,13.71,0,0,0-8.45-3.62l-.06.08A11.26,11.26,0,0,0,67,305.34a11.09,11.09,0,0,0-2.43,3.58"/><path class="cls-4" d="M279.2,173.79c11.33-1.32,22.06,5.47,30.25,13.41a99.46,99.46,0,0,1,29.08,81.7"/><path class="cls-4" d="M346.39,268.87a13.69,13.69,0,0,0-7-6l-.08.06a11.1,11.1,0,0,0-4.09,1.17,11,11,0,0,0-3.39,2.69"/><path class="cls-4" d="M216.62,200.39a328.91,328.91,0,0,1,12.06,71.18,328.37,328.37,0,0,1-5,79c3-3.29,6.62-6.84,11.1-6.84s8.32,6.29,4.79,9.06a7.3,7.3,0,0,1-4.87,1.09,32,32,0,0,1-10-2.07"/><path class="cls-4" d="M170.78,200.39a328.91,328.91,0,0,1,12.06,71.18,328.89,328.89,0,0,1-5,79c3-3.29,6.62-6.84,11.1-6.84s8.32,6.29,4.79,9.06a7.3,7.3,0,0,1-4.87,1.09,32,32,0,0,1-10-2.07"/><path class="cls-1" d="M89.85,45.93l69.47,46.49,6.37-85.25L204,92.42s28.64-60.31,53.74-90.61c1.43,34.72-5.95,103.92-5.95,103.92l75.26-35-36.86,55.92,57.64,37-65.42,10.82L315.42,253l-60.8-41.16-50.35,80.38-10-63.49-75.19,44.14,28.14-55L66.43,230,98,179,2.22,177.79,82.29,149.5,17.34,107.79,118.2,113Z"/><g class="cls-5"><use class="cls-6" transform="translate(-291 512) rotate(-90) scale(0.22)" xlink:href="#image"/></g><path class="cls-4" d="M210.56,166.59c-.4-6-.75-12.19,2.14-17.62s10.11-9.68,16.76-7.87c8,2.19,9.83,12.47,10.08,19.69"/><path class="cls-4" d="M151.48,176.27c-.41-6-.78-11.55,2.1-17s10.12-9.68,16.77-7.87c8.05,2.18,9.83,12.47,10.08,19.69"/><path class="cls-2" d="M120.91-344.95c-6.86-22.89-34.67-36.07-57.56-29.2s-38.52,30.9-38.23,54.79,15,46.42,35.38,58.87,45.71,15.45,69.22,11.12c12.74-2.34,26.59-8.14,31-20.32-8.29,13.45,2.83,31.68,17.3,38,25.87,11.36,60-6.43,65.55-34.14,6.27,20,28.31,30.92,49.11,33.12,22.86,2.42,47.27-3.65,63.92-19.5s23.8-42.15,14.2-63-37.18-32.56-57.63-22.06c11.8-12.21,22.54-26.17,27-42.56s1.56-35.61-10.77-47.29c-14.61-13.82-37.8-13.59-57-7.54-31.09,9.79-59.38,36.43-60.24,69-7-23.9-23.79-45.79-47.16-54.37s-52.89-1.09-66,20.09S95.28-345.92,120.91-344.95Z"/><g class="cls-7"><use class="cls-6" transform="translate(-233 6) rotate(-90) scale(0.22)" xlink:href="#image"/></g></g></g></svg>