<svg id="Ebene_1" data-name="Ebene 1" xmlns="http://www.w3.org/2000/svg" viewBox="0 0 1687 662"><defs><style>.cls-1{fill:#55b3f6;}</style></defs><path class="cls-1" d="M876.2,627.27c-14.09-.55,7.31,3.21-9.28.34C868.94,626.6,871.72,625.94,876.2,627.27Z"/><path class="cls-1" d="M888.29,602a237.91,237.91,0,0,1-36.1,6c-6.37.62-12.89,1.12-19.49,1.54s-13.3.58-20,.83c-26.91,1-54.35.83-79.28,3.59-5.84.33,1.48-4.18-11.69-3.16-6,.74-12.52,1.37-19.35,1.79s-14,.6-21.44.71-15.13-.06-23-.26q-5.89-.16-11.91-.41l-12.08-.73a895.65,895.65,0,0,1-95-11.55l3.65-.81c-5.52-1-11.77-.84-18.12-.67a103.2,103.2,0,0,1-18.65-.69c0-.79,3.9-.68,1.29-2.06-1.62,1-7,.73-12.57.18s-11.44-1.13-14.05-.57c-4.54-1.51-3.82-3.34-9.67-5.18l-7.11,1.72c-9.79,1.82-21.15,0-33.23-2.53s-24.89-5.76-37.86-6.66c1.34-.38,3.93-.36,2.05-1.35-20.65-2.16-43.61-6.59-66.8-12.61s-46.61-13.61-68.46-21.59c2.07-.2,4.29-1.18,2.17-3.17-1.58.87-5.79.22-11-1.32-2.61-.8-5.48-1.8-8.43-2.87l-4.46-1.66c-1.5-.55-3-1.12-4.41-1.74-1.94-2.53-7-4.2-13.25-6.22-3.1-1-6.41-2.3-9.77-3.72a56.85,56.85,0,0,1-9.74-5.18l1.4,0c-11-2.45-13.22-9.17-22.63-10.31-1.62-1.78-3.21-3.61-4.81-5.4-3.09.6-6.2-1.87-9.61-4.81s-7.07-6.41-11.39-7.92l-.21.87c-7.69-3.65-10.23-7.8-17.09-11.59l-.35-.81c-15.76-9.46-22.7-18-24.33-15.13-1.77-3,1.94-.49,5.38,1.55s6.62,3.64,3.69-.83a323.19,323.19,0,0,1-36-27.58A248.53,248.53,0,0,1,53.1,406.29c-1.17-1.53-2.37-3-3.51-4.58L46.26,397c-2.28-3.1-4.23-6.43-6.32-9.67-1.07-1.61-1.95-3.33-2.91-5l-2.83-5.05-2.56-5.19c-.85-1.74-1.74-3.45-2.45-5.25A154.34,154.34,0,0,1,17,322.45c.7-7.07.79-11.43,2.05-13a102.08,102.08,0,0,1-.3-14.29c.22-5.62.67-11.18.39-14.05-.15,1,.43.11,1.12-1.42a33.14,33.14,0,0,0,2.06-5.19A31,31,0,0,0,23.94,268c.26-1.82.24-3.42.33-5.05a25.78,25.78,0,0,1,.6-5.25,23.68,23.68,0,0,1,.94-3.16,36.41,36.41,0,0,1,1.71-3.73c-1,4.84-.47,6.71,1.17,5.61a63.74,63.74,0,0,1,4.8-16.83c2.41-5.81,5.41-11.6,8.19-17.08-.51,1.91-1.7,4.63-.58,4.73,2-6.49,5.45-11.61,9-16.31s7.19-9,10-14.21c-.41,1.53-.8,3.07-1.17,4.6,6.52-6.78,6.71-8.36,6.51-9.9s-.66-2.89,5.08-8.71c-2.08,3.36-.62,2.78-.5,3.8a84.58,84.58,0,0,1,7-10.9c1.35-1.94,3-3.74,4.53-5.63s3.23-3.75,4.9-5.61l5.19-5.33c1.72-1.76,3.39-3.51,5.13-5.1s3.35-3.18,4.9-4.7l2.25-2.22,2.16-2c-.53.78,0,1,0,1,12.38-11.11,27-20.42,41.84-31.08,3.06-1.36,3.17-.11,4.34.28.6.2,1.44.15,3.07-.48a49.69,49.69,0,0,0,7.77-4.1c-.57-.72.67-2.13,2.8-3.65s5.06-3.26,7.72-4.88c5.37-3.15,9.74-5.69,4.14-5.39,3.47-1.47,7.43-3.18,11.65-4.76l6.39-2.48c2.15-.82,4.33-1.58,6.45-2.37l6.21-2.34c2-.72,4-1.42,5.75-2.11,3.61-1.39,6.7-2.7,9-3.78-3,1.76-.85,2.24.53,2.82s2,1.22-3.74,3.46c3.16-.39,6.37-.63,9.53-1-.81,1.89-9.21,2.62-5.79,3.47,1.45-.54,3.56-1.38,6-2.38s5.2-2.15,8-3.17,5.56-2.06,8-2.88a48.42,48.42,0,0,1,5.87-1.61c2.57-1.33,5.06-2.81,7.65-4.27s5.26-3,8.17-4.47A97.6,97.6,0,0,1,277,64.53c1.79-.7,3.66-1.4,5.67-2.05s4.12-1.24,6.39-1.82c-8.21,3.37,5.76,2.87.1,4.83l5.93-3.18,6-3.1c4-2.07,8-4.13,12-6.11,6.08-1.36,1.89,2.59,10.52,0-.64-.88,3.09-2.18,5.65-3.45,2.35-.11,25.32-5.29,28.56-2,2.91,1-9.85,2.34-2.87,2.55,11.28-1.84,11.6-3.09,22.91-4.82l.28.45a56.4,56.4,0,0,0,12.69-2.6c3.47-1.17,4.95-2.41.74-2.87-5.23.59,2.27,1.9-5.58,1.91,5-2.85,18.11-5.18,29.46-6.62-3.8,1.08-3.21,2-4.64,3.2a236.93,236.93,0,0,1,23.2-6c4-.83,8.11-1.62,12.26-2.4s8.33-1.48,12.57-2.21c.09-1.75-6.07,3.79-8.7,3.15,11.14,0,22.35-1.86,33.17-3.53s21.19-3,30.45-2c-3,.53-1.8-2.34-1.56-1.87,10.6-.55,10.3,2,17.13.57.77,1.41,8.62-1.05,15.69-2,3.59-1.32,1.89.59-4.28,1.17,2.45-.48,6.75-1.16,12.19-1.85s12-1.41,19-2.06c14-1.22,29.59-2.07,41.07-1.49-.49-.95,13.91-4.25,19.17-4.31l-2,2.37c4.85,1.18,17.62-.88,18.57,1,5.57-1.6-5.23-.59-15.52.48s-20.07,2.29-12.53.85c4,1.7,21-4.47,17.86-1.24,5.29-.25,10.46-1.12,15.59-1.69a53.71,53.71,0,0,1,15.3.11c-3-.28-8.48,3.42,0,3,15-.86,4.23-1.24,16.38-2.33l7.62-1.12c.46-2.23,13.44,0,7.8-2.37.94.9,6.4.49,11.44.33s9.65,0,8.91,1.83l-2,2.94c6.49-.31,10.58-3.22,15.68-4.59.85.27,2.57.82,2.24,1.3.49-2.23,4.38-2.2,9.09-2s10.27.5,14.11-1.24c6.83.74,15.49.68,23.25.88s14.62.57,17.83,2c5.24-.65,10.25-1.39,15.45-1.81a97.57,97.57,0,0,1,16.55.08c-2.39.38-5.66.47-6.33,1.42,7.48,1.41,9.34.25,16.2-.38-.77.32,3,1,7.94,1.84s11.17,1.89,15.32,2.77c10.42-1.1,6.92-3.58,8-5,4.71,2.33,12.07,1.72,19.74,1.22s15.64-1.06,21.53,1.12c-3.62.49-15.24,1.66-6.63,3,9.35,4.69,19.28-2.67,34.54.15l-3.62-3.81c6.73,2.56,22.68-1.12,20.94,2.52,5.2-1.14,18,2.11,16.49-1.53a196.59,196.59,0,0,0,20.39,2.2c3.58.23,7.21.41,10.82.59l10.74.65c14.09.93,26.95,2.1,34.43,5.89,3.64-.3,12.59,1,10.89-.95-5.84-2.45-8.47.75-10.59-.78,3.23.15,4-.77,4.39-1.23,7.76,1.44,13.88,2.18,6.27,4.54,8.6,1.78,13.2.63,18.4-.57a55.75,55.75,0,0,1,8.84-1.48,59.71,59.71,0,0,1,13.18.76c-1.13,1.38.5,2.09,7,2.46l12.51-1.38c14.25,1.91,7.79,4.08,7.9,6.6,7.66.35,17,1.49,20.63,0l8.92,4.11c-6.49-3,6.44-.83,10.09-1.06l-3.65.23c.64.6,3.19,1,6.13,1.21s6.27.44,8.51.54c-.43-.83-2.87-1.67-5.82-2.44s-6.4-1.36-8.83-1.85a42,42,0,0,1,7.2-.23,58.42,58.42,0,0,0,8.16-.17c-2,2.22,12.22,3.23,18.24,4.22,6.89,1.37,8.1-1.23,10.13-.89,0,1.28,11.31,1.59,5.67,2.69-2.42.11-5.26-1.88-9.32-1.25,4.47,1.5,3.66,3.58,13.35,3.2,7.3-.22-1.21-5,12.14-1.64-3.65.11-4.43,1-7.29,1.48l12.51,3,.84-2.13c1.64.79.43.82,1.18,1.22,4.09-1.8,19.47,2,22.72-.27,6.44.76,13.24,3.6,19.31,4.79h-1.2c7.25,2.44,17.29,3.11,23.8,2.59l-.42.43c4.05.8,13.7,2.15,19,1.72,10,3.42,2,8.87,13.85,8.06,5.21.85,9.46.55,11.93-.23s3.13-2,1.16-3.11c9.21,2.51,19.27,3.89,29.13,5.47,4.92.79,9.8,1.63,14.48,2.7,2.39.57,4.87,1.26,7.17,2a70.66,70.66,0,0,1,6.59,2.63c2.94-.14,1.37-1.15,7.13-.15,13.73,4.26,28.19,8.41,41.67,13.27,6.71,2.49,13.22,5,19.16,7.87,3,1.44,5.87,2.82,8.53,4.41s5.21,3.17,7.56,4.82c-7.88-2.52-1.42,1.8-1.8,3a12.35,12.35,0,0,1,4,1.19,14.56,14.56,0,0,1,2.28,1.57c1.2,1,2,1.51,3.81.49.24-2.09,1.31-2.73-5.59-6.87,4,1.53,8.35,3.47,12.87,5.5,2.27,1,4.52,2.11,6.75,3.25s4.46,2.27,6.62,3.41c4.33,2.22,8.28,4.68,11.68,6.8a62.62,62.62,0,0,1,8,5.68c-3.59-3.2-.16-1.89,3.36-.52-1.34,1.07.62,3.3,4,5.73a67.91,67.91,0,0,0,5.88,3.71c2.13,1.27,4.38,2.47,6.53,3.49l2.17-.94,4.12,5c3.42,1.39,5.61-1.22,12.38,5.6a4.37,4.37,0,0,0,1.1,3.26c9,4.09,22.1,10.46,29.35,18.85,1.67,2.64,3.24,5.37,4.83,8a39.09,39.09,0,0,0,5.94,3.81c1.49.63,1.87.12-.84-3,3.08,3.56,6,6.66,8.42,9.7s4.7,5.61,6.47,8.13a76.64,76.64,0,0,1,4.51,6.64,26.63,26.63,0,0,1,2.37,5.3,106.37,106.37,0,0,1,9.26,9c.39.41.79.82,1.17,1.24l1.1,1.32,2.23,2.71,2.24,2.79c.37.47.76.93,1.12,1.42l1,1.5c1.39,2,2.8,4.07,4.2,6.17.73,1,1.32,2.17,2,3.27l1.92,3.37,1.91,3.41c.59,1.18,1.13,2.38,1.7,3.58s1.12,2.41,1.68,3.63,1.16,2.41,1.6,3.69a136.14,136.14,0,0,1,8.33,31.61,137.61,137.61,0,0,1,.35,31.43l-1.37-1.3c-2.48,10.35,2,5.81-.12,13-.42-1.82-1.47.07-2.5,1.29s-2,1.81-2.14-2.33a67.38,67.38,0,0,0-2.79,16c-.13,2.09-.11,4.09-.32,6.1a31.66,31.66,0,0,1-1.12,6.46c.65,1,1.06-.91,1.42-2.79s.75-3.7,1.62-2.44a16.6,16.6,0,0,1-1.13,3.82c-.77,1.91-1.73,4.34-2.73,6.75-2,4.85-4,9.71-3.14,11.39-2.65,2.88-3.3-.63-3.59-2.92-.36,1.47-.83,2.89-1.25,4.34s-.84,2.9-1.33,4.32c-4,4.06-2.42-2.12-1.36-8.27a32.52,32.52,0,0,0,.72-7.9c-.26-1.77-1.09-2.17-3.11-.06-.93,2.46-1.8,4.95-2.83,7.37-1.49,1.36-1.87.76-1.75-.59a17,17,0,0,1,.47-2.48c.22-.92.46-1.91.68-2.81.88-3.57,1.44-5.57-3,3-1.11,4.1-1.68,8.2-1.34,10.59s1.59,3,3.92-.15c-3.83,8.15-3.52,10.75-3.29,13.56a11.61,11.61,0,0,1-.52,4.92c-.65,2.12-2,4.91-4.86,9-2.25,1.73-.06-1.56,2-5.14s4.13-7.44,2.11-6.45c-3.42,3.32-5.64,7.34-7.79,11.32-1.06,2-2.08,4-3.22,5.83a28.57,28.57,0,0,1-3.74,5.09c6.36-6.6,4.14,1.32.84,6.37-3.69,3.49-3.2,1.78-2.94.58s.33-1.89-4.27,3.44c-.13,2.89-7.85,13.53.49,5.8-.26,3.17-2.91,5.85-5.92,8.56s-6.33,5.55-8,9.34c-2.58.72-1.11-3-.52-5.56.29-1.3.36-2.32-.36-2.38s-2.23.85-5.16,3.35c.89,0,.66,1-.06,2.48s-2,3.33-3.07,5.12c-2.21,3.53-3.86,6.72.45,5.28-2.47,1.84-4.19,2.47-5,2.12s-.7-1.63.36-3.72a24.76,24.76,0,0,0-5.14,4.7c-1.61,1.79-3.12,3.72-4.57,5.47-2.9,3.48-5.57,6.18-8.27,5.14-.17,1.32-.36,2.63-.57,3.91-2.64,1-6,2.93-10.33,4.54-1.48,1.16-3.22,2.91-5.15,4.7s-4,3.69-5.84,5.36c-3.8,3.33-7.07,5.66-7.95,3.84-1.73,1.71-15.89,11.34-8.9,9.84,9.75-4.75,8.93-8.6,15.88-9.19a17.59,17.59,0,0,0-5.28,2.43,26.92,26.92,0,0,0-4.4,3.53c-2.67,2.6-4.94,5.53-7.21,7.73l-1.69-.7c-2.73,2.55-10,6.86-11.08,9.53,1.89-2.28.09-2.37-2.57-1.08-.67,1.35-1.32,2.74-2,4.06-12.23,8.76-5.16-1.65-17.25,6.39,2.86-2.37,5.67-4.83,8.5-7.24-.93.79-2.73,1.36-5,2.25-1.13.45-2.37,1-3.68,1.65a31.76,31.76,0,0,0-4.12,2.45c-1.26,3.18-4.41,7.91-5.63,10.52-3.34,2.45-4.46,2.31-5.47,2.35s-1.92.19-5,3l4-3.61c1.35-1.2,2.69-2.4,4-3.66.51-.72-1.44-.55-4.76.3a60.31,60.31,0,0,0-12.72,5.11c-2.87,2-6.43,4.72-7.94,6.63s-1,2.82,4.19.89c-4.9,2.47-12.32,4.71-9.12,1.38-5.36,3.09-4.78,3.38-3.93,3.72s1.91.62-2.65,3.48c-2.29.29-6.73,1.41-11.62,2.65s-10.3,2.4-14.43,3.1l8.67-7.71-6.73,2.92c7.51-6.44-5.27-.09-1.61-5a39.88,39.88,0,0,0-7.2,3.38c-2.38,1.38-4.72,2.78-6.78,4.08,7.66-.55,4.55,2.52.16,6.07s-10,7.54-7.24,8.78c-9.18,4.22-13.09,2.86-16.81,2.19s-7.29-.76-15.94,6.11c3.62-.11-4.54,6.47,6.93.91-6,1.93-7.57,3.71-9.54,5.37s-4.27,3.29-11.55,4.84c9.74-5.3-12.5-.4,1.53-8-.52,1.73,8.66-1.83,10.8-3-5.41.1-.49-4.52-12.5-.36l-5.68,2.28c-1.92.74-3.79,1.48-5.36,2.19-3.15,1.41-5.13,2.69-4,3.54,1.1,2.3,11.19-4,7.26,0a80.84,80.84,0,0,1-15.07,4.29c-3.32.71-5.42,1.51-7.83,4.59,9.27-3.18,12.4-1.44,12.76.25-3.52,1.5-7.07,2.91-10.62,4.37l1.63-2.25c-17.87,4.19-4.28,4.5-21.44,9.25l-8.94-1c1.64-2,8-3.28,13.26-4.87s9.67-3,7.49-4.76a90.18,90.18,0,0,0-12.5,4.72,51.81,51.81,0,0,1-12.35,3.55c2.23-1,5.37-2,7.56-3.06-4,1-9.63-3.9-24.43,4-7.81,3.49-1.74,2.17-1.49,3.92-8.89,2.49-14.57,4.51-19.47,6.29a122.11,122.11,0,0,1-14.8,4.77c1.62-3.85-20.61,4.26-8.55-2a36.32,36.32,0,0,0,7.82-.64c1.71-.28,3.57-.62,5.51-1s3.92-1,5.91-1.5c8-2.2,15.82-5,18.58-7.41-3.76-1.14-.22-1.87,4.61-2.95s10.89-2.74,12.25-5.24c-7.11,1.93-10.76,1.89-13,1.12s-3.06-2.29-4.53-3.26c-4,.81-7.54,2.83-9.8,3.82-1.07,2.79,4.09,1.46,5,3.83-4,.83-8,1.78-11.79,2.8q-2.85.78-5.57,1.59l-2.68.83-2.62.78a106.7,106.7,0,0,0-16.9,6.51c-5.63,0-4.44-2.75,1.85-4.39-4.73,1.21-9.55,2.49-14.44,3.52s-9.82,2-14.73,2.91-9.79,1.83-14.61,2.56-9.57,1.34-14.17,1.93c12.5,1.92-20.27,4.4-11.67,6.3,10-.78,18.93.57,13.8,3.27-6.22.79-.1-1.76-2.82-2.16-7.51,3.48-12.73-1.33-19.94,3.13,8.79-1.89,9.44-3.3,8.28-4.57s-4.17-2.53-2.79-4.3c-12.46,3.57.2-2.28-12.36-.47-3.1.89-6.4,1.78-9.81,2.65s-6.93,1.79-10.53,2.5c-7.19,1.5-14.58,2.88-21.63,4.06a146.66,146.66,0,0,0-14.94.24c-5.33.35-10.9,1-16.41,1.64l-4.12.53-4.06.45-7.86.91c-5.08.58-9.77,1.1-13.76,1.39-4.22-.5-5-1.75-5.79-2.88s-1.73-2.13-6.26-2.25c-10.6.51,8,3.49-7.74,2.52l1.48-.76c-2.36.5-9.59.21-16.78.42-7.19,0-14.36.63-16.66,3.2l4.8-3.91c-2.94-.3-5.64.62-8.07,1.07-.13-1.25-3.55-2.33,1.21-3.22a32,32,0,0,0-7.43-.93c-1.27,0-2.54,0-3.82.09s-2.57.11-3.86.21c-5.18.4-10.48,1.14-15.74,1.15l6.75,2.32c-18.1,1.76-30.13-1.12-47.6-.9l.62-2.21-10.42.71c2.64-2-6.76-4-12.34-2.49l13.6-1.89c4.53-.64,9-1.22,13.55-2,7.4,1.58-8.26,2.4-3.69,4.74,3.89,2.05,20.08,2,22.73,0-6.15-.46-6.47,0-11.28.64-1.92-3.16,7.43-2.7,12.1-4.6-3.22,0-7.77-1.09-8.49-.14,6.36-1.32,12.73-1.17,23.26-1.23-7.15,1.13,3.85,1.95,1.14,2.8.44-1.35,3.17-2.21,7.42-2.62,2.12-.21,4.62-.3,7.4-.29,1.4,0,2.86,0,4.38.1s3.1.07,4.72.15c4.66,1.49,10.77.89,17.58,0l10.66-1.4a79.88,79.88,0,0,1,11.19-.72,71.82,71.82,0,0,1-22.92,6.78,55.06,55.06,0,0,0,10,.48,58.38,58.38,0,0,1,10.08.25c4.51-2.25,7.67-5.5,19.92-7.3l.78,2c11.13-1.78,10.92-4.78,25.14-5.17,3,0,6.1-.25,9.15-.43l9.12-.59,9-.65c3-.23,5.93-.41,8.82-.75l16.71-1.79c5.32-.58,10.35-1.07,15-1.72l1,1.91c4.83-2.89,13.3-4.51,22.26-5.9s18.35-3,25-5.09a149.84,149.84,0,0,0,18-2.79c6-1.21,11.92-2.57,17.49-3.81,11.09-2.77,20.79-5,27.12-4.66,2.54-.63,5-1.4,7.5-2.11l7.38-2.14L1281.8,592l28.39-8.76c9.42-3,18.83-6.15,28.54-9.15s19.53-6.34,29.78-9.76l-5.91,5.17c6.63-4.59,5.32,0,12.39-2.95-4.54.3-2.27-1.23,1.61-3.41s9.45-4.87,11.65-6.64a154.18,154.18,0,0,0,29.23-11.07c4.85-2.27,9.48-4.84,13.86-7.29,2.19-1.23,4.31-2.43,6.33-3.61l5.73-3.55,1.45,1.56c7-5.28,15.31-9.58,24.37-13.64,4.47-2.13,9.12-4.2,13.87-6.33s9.42-4.55,14.14-7a27.63,27.63,0,0,0,12.18-4.34c2-2.21,3.93-4,5.77-5.73s3.61-3.31,5.57-5,4.08-3.33,6.52-5.29,5.09-4.36,8.26-7.18c5.12-3.42,11.63-8.16,18.34-12.7,1.7-1.11,3.3-2.35,4.93-3.5l4.81-3.4c3.14-2.2,6.15-4.21,8.68-6q3-3.18,6.07-6.29l3.07-3.09,3-3.12c4-4.18,7.94-8.36,11.8-12.65,7.74-8.53,15.22-17.31,22.12-26.52a212,212,0,0,0,18.51-29,154.88,154.88,0,0,0,7.06-15.55,130.37,130.37,0,0,0,5-16.15l3.18-2.48c.83-5.48,1.59-11.05,2-16.7a170.06,170.06,0,0,0,.45-17.07c0-1.42-.11-2.85-.17-4.29s-.23-2.85-.34-4.28-.33-2.85-.48-4.28c-.09-.71-.13-1.43-.27-2.14l-.39-2.12-.73-4.24c-.14-.71-.21-1.42-.39-2.12l-.53-2.09c-.34-1.4-.69-2.8-1-4.19-.18-.7-.31-1.4-.53-2.09l-.67-2A131.63,131.63,0,0,0,1615.62,215c1.83,0,3.67,0,5.53.08-.89-1.23-1.86-2.47-2.87-3.69a42.58,42.58,0,0,0-3.19-3.51,64,64,0,0,0-6.56-5.67c-4.22-2.92-7.34-4.11-7.21-2q-.73-.87-1.56-1.74c-.57-.56-1.17-1.13-1.78-1.7-1.23-1.13-2.54-2.27-3.88-3.41s-2.78-2.23-4.21-3.33l-4.25-3.24c-2.84-2.09-5.57-4.09-7.82-6.07a23.75,23.75,0,0,1-5.26-5.6,39.88,39.88,0,0,0-3.47-2.59c-1.1-.74-2.12-1.38-3.09-1.94a57.22,57.22,0,0,0-5.32-2.71c-1.68-.75-3.33-1.43-5.12-2.27a67.58,67.58,0,0,1-6.1-3l-7.23-5.15c-2.23-1.6-4.42-2.93-6.46-4.25s-4-2.53-5.88-3.69-3.74-2.29-5.63-3.3c-3.75-2.07-7.49-4.06-11.64-6.21l-14.24-6.8,5.18,2.95c2.75.41,3.76-1-1.47-4-2.11-.81-5-2.1-8.09-3.55s-6.26-3.05-9-4.2c-5.59-2.3-9.29-3.25-6.22.8a142,142,0,0,0-18.5-9c-3.35-1.3-6.78-2.58-10.25-3.84s-7-2.36-10.52-3.55c-14.09-4.57-28.17-8.58-39.52-13.29.85.89-.24,1-1.86,1-.81,0-1.76-.1-2.67-.13a16.55,16.55,0,0,0-2.41.07c-2.48-.56-5.42-1.13-8.23-1.73s-5.66-1.24-8.48-1.88L1359.59,89c-2.73-.61-5.43-1.21-8.09-1.76s-5.27-1.07-7.84-1.46A135.06,135.06,0,0,0,1329,84.17c-3.5-1.28,6.12-1.24-3.07-3-5.55-.43-.43,1.69-7.26,1.28-4.64-.48-9.27-1.08-13.89-1.77s-9.25-1.33-13.86-2.1c-9.21-1.53-18.36-3.32-27.4-5.15s-18-3.44-26.82-5c-4.4-.77-8.76-1.51-13.07-2.17-2.15-.33-4.3-.65-6.43-.94s-4.26-.5-6.36-.71c-60.08-5.05-122.51-12.17-180.18-15.61l.72-.93a76.55,76.55,0,0,1-15.52,0c-2.69-.23-5.42-.54-8.14-.89l-8.16-1c-10.79-1.31-21.13-2.36-29,0-4.51-1.2-17.43-1.22-13.94-3-7.76,1-18.5-.12-30.12-1.13s-24.11-1.76-35.29-.45a21.55,21.55,0,0,0,5.6-.35,164.49,164.49,0,0,0-16.46-1.25c-5.39-.17-10.73-.19-16.1-.19-10.75-.06-21.65.09-33.51-1,2.41-.39,6.79-.64,7.51-1.61-9.15-2-21.78,3.82-26.79-.87-5.26,0-3.76,2.35-.52,2.22-52.05-2.13-107.59,1.63-161.58,4.66-19.43-.66-20.11-2.62-19.72-3.83s1.81-1.71-13.41.75c-2.54-.79-1.72,1.89-2.2.93-5.88.93-10.55-.17-14.76-1.15s-8-1.78-12-.33c3.54,2.71-5.38,1.91-5.53,3.67-23.77-.55-28.71-2.83-47.25.61l1.3-1.61c-21.59,5.77-47.11,5.49-65,12.16l-11.19,1.18-5.54.62-5.64.68-11.06,1.38L426.18,59.8c-14.82,2-29.54,4-44.13,6.3S353,70.85,338.66,73.58s-28.51,5.79-42.52,9.17c-3.5.88-7,1.69-10.48,2.61l-10.41,2.75-10.32,3c-3.44,1-6.82,2.07-10.23,3.1-13.59,4.26-26.94,9-40,14.3a352.37,352.37,0,0,0-73.2,39.83A276.9,276.9,0,0,0,109.91,174l-7.25,7.11-7,7.4c-2.27,2.51-4.44,5.11-6.67,7.66l-1.66,1.93-1.69,2-3.31,4.06a244.62,244.62,0,0,0-22.8,33.05,160.49,160.49,0,0,0-15,35.4,124.52,124.52,0,0,0-4.85,36.84c0,1.55.15,3.09.25,4.63l.31,4.63c.13,1.54.41,3.07.61,4.6s.38,3.08.66,4.61l1,4.57c.33,1.52.58,3.06,1.06,4.56l1.26,4.54c.22.75.38,1.52.65,2.26l.78,2.24A161.78,161.78,0,0,0,63.1,381,238.06,238.06,0,0,0,88,413.14L90.71,417l2.54,3.34c1.61,2.09,3,4,4.47,5.65s2.75,3.18,4,4.6,2.65,2.7,4,4,2.76,2.56,4.32,3.84,3.24,2.6,5.11,4,4,2.93,6.38,4.64,5.08,3.51,8.13,5.56c-1.33-.19-2.9-1.2-1.69.48.79-.43,2.22.12,4,1.17s4,2.54,6.15,4.09c4.41,3,9,6.18,11,5.64a537.33,537.33,0,0,0,53.43,32.46l6.93,3.7,3.49,1.85,3.45,1.74,6.92,3.49,3.48,1.75c1.15.6,2.32,1.18,3.51,1.71l14.34,6.65,14.85,6.4c-6.46-2.43-10.73-1.36-3.09,1.73,2.9.54,5.86.91,8.78,1.33l1,1.37c5.42,1.63,11.68,2.39,6.68-.74,25.76,9.37,52,17.26,78.55,24.29s53.39,13.06,80.49,18.18c54.24,10.28,109.07,17.64,164,20.81,6.51.72,13.72,1.32,21.32,1.82s15.6.71,23.67,1l6.06.17,6.06.06,12,.07c4,0,7.84.06,11.63,0l11-.12c42.1,2.8,82.31,4.06,122.66,3.26a1038.35,1038.35,0,0,0,123.43-9.59s-2.56,2.37-9.55,5.42a105.62,105.62,0,0,1-14,4.85c-3,.82-6.27,1.63-9.93,2.41S892.71,601.44,888.29,602Z"/><path class="cls-1" d="M893.1,628.41c2.86,2,12.67,3.4,4.64,5.13C896.88,632,892,629.77,893.1,628.41Z"/><path class="cls-1" d="M1157.8,636c.27-.53,3.85.12,4.73.27-3.23.59-6.09,2.39-8.81,1.92C1157,637.54,1156.39,636.85,1157.8,636Z"/><path class="cls-1" d="M1225.14,625.12c-.7,1.63-14.83,5.58-23.29,7.41Z"/><path class="cls-1" d="M1288.6,616.49c2.84-.07,3.91.07,3.4.56s-2.65,1.21-6.27,2.08C1285,618.51,1287.3,617.54,1288.6,616.49Z"/><path class="cls-1" d="M1292.13,612.1a28.8,28.8,0,0,1,10.57-1.21C1302.17,609.74,1291.06,614.94,1292.13,612.1Z"/><path class="cls-1" d="M1425.15,572.22c1.53-.69,3.87-2,6.25-3.13s4.8-2.09,6.56-2C1434.33,567.59,1423.58,575.17,1425.15,572.22Z"/><path class="cls-1" d="M1483.26,542.93a19.48,19.48,0,0,0,4.76-2.58c3.72-1.22.63,1.63-2.21,3.3Z"/><polygon class="cls-1" points="929.19 15.67 936.1 15.26 935.03 16.65 929.19 15.67"/><path class="cls-1" d="M421.56,31.9c-6.72,1.74-4.92-.77-6.08-.85C421.63,30.14,413.42,33.11,421.56,31.9Z"/><polygon class="cls-1" points="158.52 108.4 160.34 107.34 161.15 110.3 158.52 108.4"/></svg>