<svg id="Ebene_1" data-name="Ebene 1" xmlns="http://www.w3.org/2000/svg" viewBox="0 0 471.01 306.61"><defs><style>.cls-1{fill:#fff;}</style></defs><ellipse class="cls-1" cx="174.06" cy="72.78" rx="58.57" ry="40.11" transform="translate(-11.64 39.48) rotate(-12.53)"/><ellipse class="cls-1" cx="303.82" cy="72.78" rx="40.11" ry="58.57" transform="translate(166.88 353.58) rotate(-77.47)"/><path d="M201.3,76.35c-3.41,6.93-11.66,13-22.16,15.28-15.34,3.41-29.66-2.35-32-12.85S155.35,57,170.69,53.59c14.93-3.32,28.9,2,31.78,12a9.38,9.38,0,0,0-1.46.22c-4.14.92-7,4-6.36,6.79C195.18,75,198,76.47,201.3,76.35Z"/><path d="M332.58,76.27a12.58,12.58,0,0,1-.31,2.51c-2.34,10.5-16.66,16.26-32,12.85s-25.89-14.69-23.55-25.19,16.66-16.26,32-12.85c8.78,1.95,16,6.48,20.11,12-3.15,0-5.72,1.46-6.23,3.73-.63,2.84,2.22,5.88,6.35,6.8A10.5,10.5,0,0,0,332.58,76.27Z"/></svg>