<?xml version="1.0" encoding="utf-8"?>
<!-- Generator: Adobe Illustrator 26.0.2, SVG Export Plug-In . SVG Version: 6.00 Build 0)  -->
<svg version="1.1" id="Ebene_1" xmlns="http://www.w3.org/2000/svg" xmlns:xlink="http://www.w3.org/1999/xlink" x="0px" y="0px"
	 viewBox="0 0 471 306.6" style="enable-background:new 0 0 471 306.6;" xml:space="preserve">
<style type="text/css">
	.st0{fill:#FFFFFF;}
</style>
<ellipse cx="238.9" cy="95.1" rx="146" ry="93.5"/>
<ellipse transform="matrix(0.9762 -0.217 0.217 0.9762 -11.6451 39.5158)" class="st0" cx="174.1" cy="72.8" rx="58.6" ry="40.1"/>
<ellipse transform="matrix(0.217 -0.9762 0.9762 0.217 166.834 353.6455)" class="st0" cx="303.9" cy="72.8" rx="40.1" ry="58.6"/>
<path d="M148.2,164.5c-0.7,18.3-1.1,36.7-1.4,55s-0.2,36.6,0,54.8c0.1,3.9,0.8,8.7-2.9,11.2c-2.9,1.9-6.6,2.3-9.9,2.6
	c-1.9,0.1-1.9,3.1,0,3c6.1-0.4,14.2-1.9,15.6-9c0.3-2.2,0.4-4.4,0.3-6.6l-0.1-7.2c-0.1-4.7-0.1-9.5-0.1-14.2
	c-0.1-19.1,0.1-38.2,0.5-57.3c0.2-10.8,0.6-21.6,1-32.4C151.3,162.5,148.3,162.5,148.2,164.5L148.2,164.5z"/>
<path d="M204.6,182c-0.5,17.1-0.9,34.2-0.6,51.4c0.1,8.6,0.4,17.1,1,25.6c0.5,7.7,1.6,15.3,1.9,23s-0.5,15.8-5,22.4
	c-1.1,1.6,1.5,3.1,2.6,1.5c8.5-12.3,5.1-28.5,3.9-42.3c-1.4-17.4-1.6-34.9-1.4-52.3c0.1-9.8,0.4-19.6,0.6-29.4
	C207.6,180,204.6,180,204.6,182L204.6,182z"/>
<path d="M284.4,170.2c-1.8,19.3,2.3,38.4,3.8,57.5c0.7,9.6,1,19.2,0.7,28.8c-0.1,4.8-0.4,9.7-0.8,14.5c-0.3,3.7-0.7,7.4-0.7,11.1
	c0,7.4,1.4,15.4,8,19.7c1.6,1.1,3.1-1.5,1.5-2.6c-5.5-3.6-6.5-10.7-6.5-16.8c0-3.5,0.3-7,0.6-10.5c0.4-4.7,0.7-9.3,0.8-14
	c0.3-9.4,0.1-18.9-0.5-28.3c-0.6-9.4-1.9-18.7-3-28.1c-1.2-10.4-1.9-20.9-1-31.4C287.5,168.3,284.5,168.3,284.4,170.2L284.4,170.2z"
	/>
<path d="M326,168c10.4,17.6,19,36.2,25.7,55.6c3.3,9.7,6.2,19.5,8.6,29.5c1.2,5,2.2,9.9,3.1,14.9s1.5,10,2.6,14.9
	c1.1,5.1,2.8,10.1,6.2,14.1c3,3.8,7.5,6,12.4,6.3c1.9,0,1.9-3,0-3c-4.2-0.1-7.7-2.5-10.4-5.6c-3-3.6-4.4-8.2-5.4-12.7
	c-1-4.8-1.6-9.6-2.5-14.4s-1.9-9.9-3.1-14.7c-4.6-19.4-11-38.4-19.2-56.6c-4.6-10.2-9.8-20.2-15.5-29.9c-0.4-0.7-1.4-0.9-2.1-0.5
	C325.9,166.4,325.6,167.3,326,168z"/>
<path d="M104.8,120c-12,10.1-22.4,22-30.9,35.1c-4.3,6.6-8.1,13.4-11.3,20.6c-3.4,7.4-6.2,15.2-9.1,22.8
	c-3.3,8.8-6.9,17.4-12.1,25.3c-0.9,1.4,0.8,2.6,2,2.1l7.6-3.4l-2.2-0.9c0.6,1.6,0.8,3.4,0.4,5.1l3,0.4c0.3-3.4-0.1-6.9-1.1-10.2
	l-2.2,1.7l6.9,3.5c1.7,0.9,3.2-1.7,1.5-2.6l-7-3.5c-0.7-0.4-1.7-0.1-2.1,0.6c-0.2,0.3-0.2,0.7-0.1,1.1c0.9,3,1.3,6.2,1,9.4
	c-0.1,1.7,2.6,2.1,3,0.4c0.4-2.2,0.3-4.6-0.4-6.7c-0.2-0.8-1.1-1.3-1.9-1c-0.1,0-0.2,0.1-0.3,0.1l-7.6,3.4l2,2.1
	c9.2-13.8,13.3-30,19.8-45.1c6.2-14.3,14.5-27.6,24.5-39.5c5.7-6.7,11.9-13,18.7-18.7C108.3,120.8,106.2,118.7,104.8,120L104.8,120z
	"/>
<path d="M364.9,137.7c10.6,10.2,19.7,22,26.9,34.9c7.4,12.9,13.4,26.5,18.8,40.4c3.1,7.9,6,15.8,8.9,23.7c0.2,0.8,1.1,1.3,1.9,1
	c0.3-0.1,0.6-0.3,0.8-0.6c2.4-3.3,1.5-8.9-2.5-10.6s-9,2.2-8,6.6c0.3,1.5,2.5,1.4,2.9,0c1-3.3,4.4-5.4,7.8-4.8
	c1.9,0.4,2.7-2.5,0.8-2.9c-5-1-10,2-11.5,6.9h2.9c-0.5-2.2,2.8-4,4.5-2.7c1.9,1.4,1.9,4.2,0.6,6l2.7,0.4
	c-5.2-14.2-10.4-28.5-16.6-42.3c-6.1-13.6-13.2-26.9-22-38.9c-5-6.8-10.6-13.2-16.7-19C365.7,134.3,363.6,136.4,364.9,137.7
	L364.9,137.7z"/>
<path d="M104.5,74.5C90.2,80.2,75.9,86,62,92.5c-13.8,6.4-27.1,14-39.5,22.7c-7,5-13.6,10.5-19.7,16.5l1.8-0.2
	c-1.5-0.9,1.2-4,1.8-4.8c1.3-1.9,2.3-4.4,0.8-6.4L4.7,122c2.9,2.3,4.5,5.9,4.5,9.6c0,0.8,0.7,1.5,1.5,1.5s1.5-0.7,1.5-1.5
	c0.1-4.5-1.9-8.8-5.3-11.7c-1.2-1-3.5,0.4-2.3,1.8c1.4,1.8-1.9,4.6-2.6,6.3c-1,2.1-1,4.7,1.2,6.1c0.6,0.3,1.3,0.2,1.8-0.2
	c10.8-10.4,22.8-19.4,35.9-26.8c13.2-7.5,26.8-14.2,40.8-20c7.9-3.3,15.8-6.5,23.8-9.7C107.1,76.6,106.3,73.7,104.5,74.5L104.5,74.5
	z"/>
<path d="M380.5,94.2c13.6,6.9,26.5,15.2,38.5,24.6s23,20.1,32.9,31.7c5.4,6.4,11.1,14.6,9.1,23.4l2.2-0.9c-0.4-0.2-0.2,0-0.2-0.3
	c0.1-0.3,0.2-0.6,0.4-0.8c0.3-0.6,1-0.9,1.6-0.8c2.1,0.3,3.1,3.6,3.7,5.3s3.4,1.1,2.9-0.8l-3-10.2c-0.5-1.9-3.4-1.1-2.9,0.8l3,10.2
	l2.9-0.8c-1.1-3.2-3.5-8.6-7.9-7.4c-3,0.8-5.5,5.6-2,7.5c0.7,0.4,1.7,0.2,2.1-0.6c0.1-0.1,0.1-0.2,0.1-0.3c1.8-8-1.8-15.6-6.4-21.9
	c-4.8-6.3-10-12.2-15.7-17.7c-17.5-17.6-37.7-32.2-59.8-43.5C380.3,90.7,378.8,93.3,380.5,94.2L380.5,94.2z"/>
</svg>
