<svg id="Ebene_1" data-name="Ebene 1" xmlns="http://www.w3.org/2000/svg" viewBox="0 0 471.01 306.61"><defs><style>.cls-1{fill:#fff;}</style></defs><ellipse cx="238.94" cy="95.11" rx="146" ry="93.5"/><ellipse class="cls-1" cx="174.06" cy="72.78" rx="58.57" ry="40.11" transform="translate(-11.64 39.48) rotate(-12.53)"/><ellipse class="cls-1" cx="303.82" cy="72.78" rx="40.11" ry="58.57" transform="translate(166.88 353.58) rotate(-77.47)"/><path d="M148.25,164.46q-1,27.49-1.35,55t0,54.8c.06,3.94.82,8.72-2.93,11.25-2.86,1.93-6.58,2.33-9.93,2.57-1.92.13-1.93,3.14,0,3,6.07-.43,14.18-1.88,15.62-9a31.58,31.58,0,0,0,.26-6.59l-.09-7.22q-.08-7.1-.1-14.2-.1-28.64.53-57.28.36-16.19,1-32.36c.08-1.93-2.92-1.93-3,0Z"/><path d="M204.56,182c-.46,17.12-.91,34.25-.63,51.37.14,8.56.45,17.11,1,25.64.54,7.68,1.6,15.33,1.87,23s-.49,15.83-5,22.42c-1.1,1.59,1.5,3.09,2.59,1.51,8.48-12.28,5.06-28.46,3.94-42.28-1.42-17.39-1.63-34.86-1.41-52.3.12-9.8.38-19.59.64-29.39.05-1.93-2.95-1.93-3,0Z"/><path d="M284.35,170.23c-1.81,19.27,2.3,38.38,3.78,57.52a274,274,0,0,1,.7,28.8q-.21,7.27-.81,14.51c-.3,3.71-.71,7.41-.72,11.13,0,7.36,1.41,15.37,8,19.71,1.61,1.07,3.12-1.53,1.51-2.59-5.5-3.63-6.49-10.67-6.5-16.76,0-3.52.34-7,.64-10.5q.6-7,.84-14a272.82,272.82,0,0,0-.51-28.31c-.65-9.39-1.94-18.71-3-28.07-1.16-10.43-1.93-20.94-.95-31.42.18-1.92-2.82-1.9-3,0Z"/><path d="M326,168a304.48,304.48,0,0,1,25.72,55.58,306.52,306.52,0,0,1,8.57,29.53q1.76,7.43,3.13,14.94c.91,4.95,1.52,10,2.56,14.89,1.06,5.1,2.81,10.14,6.25,14.15a17,17,0,0,0,12.35,6.29c1.93,0,1.93-3,0-3-4.16-.09-7.74-2.45-10.35-5.56-3-3.57-4.42-8.18-5.36-12.68-1-4.78-1.6-9.64-2.48-14.44s-1.92-9.85-3.06-14.73a308,308,0,0,0-19.22-56.61,306.15,306.15,0,0,0-15.52-29.87A1.5,1.5,0,0,0,326,168Z"/><path d="M104.78,120A162.14,162.14,0,0,0,73.85,155.1,160.08,160.08,0,0,0,62.5,175.66c-3.42,7.45-6.16,15.18-9.06,22.84-3.31,8.76-6.92,17.44-12.13,25.26-.92,1.38.82,2.6,2,2.06l7.57-3.35-2.21-.9a9.85,9.85,0,0,1,.44,5.13l3,.4A27.12,27.12,0,0,0,51,216.89l-2.2,1.69,6.94,3.5c1.73.86,3.25-1.72,1.52-2.59l-7-3.5a1.52,1.52,0,0,0-2.2,1.7,25,25,0,0,1,1,9.41c-.14,1.67,2.64,2.06,3,.4a13.15,13.15,0,0,0-.44-6.73,1.53,1.53,0,0,0-2.21-.89l-7.56,3.35,2,2.05c9.18-13.8,13.3-30,19.83-45.06a159.27,159.27,0,0,1,24.51-39.47,161.19,161.19,0,0,1,18.66-18.66c1.47-1.25-.66-3.37-2.12-2.12Z"/><path d="M364.92,137.74a150.75,150.75,0,0,1,26.92,34.86c7.42,12.89,13.4,26.54,18.82,40.37,3.07,7.85,6,15.77,8.85,23.7a1.52,1.52,0,0,0,2.74.36c2.42-3.34,1.47-8.9-2.55-10.55s-9,2.22-8,6.58c.32,1.5,2.49,1.35,2.89,0a7,7,0,0,1,7.81-4.83c1.89.37,2.7-2.52.8-2.89a10.07,10.07,0,0,0-11.5,6.92h2.89c-.48-2.24,2.76-4,4.52-2.74,1.94,1.35,1.86,4.24.59,6l2.74.36c-5.18-14.25-10.42-28.49-16.62-42.32-6.11-13.63-13.18-26.9-22-38.94a140.25,140.25,0,0,0-16.7-19c-1.41-1.32-3.53.8-2.12,2.12Z"/><path d="M104.5,74.48C90.22,80.2,75.93,86,62,92.53a253.63,253.63,0,0,0-39.54,22.7A169,169,0,0,0,2.73,131.71l1.82-.24c-1.52-.94,1.19-4,1.75-4.85,1.28-1.86,2.29-4.44.75-6.45L4.69,122a12.12,12.12,0,0,1,4.47,9.57,1.5,1.5,0,0,0,3,0,15,15,0,0,0-5.35-11.7c-1.19-1-3.47.37-2.35,1.82,1.42,1.85-1.86,4.62-2.6,6.28-1,2.14-1,4.74,1.18,6.1a1.54,1.54,0,0,0,1.82-.23A181.64,181.64,0,0,1,40.72,107a360.84,360.84,0,0,1,40.83-20c7.87-3.34,15.81-6.53,23.75-9.7,1.77-.71,1-3.61-.8-2.9Z"/><path d="M380.47,94.17A232.25,232.25,0,0,1,419,118.8a227,227,0,0,1,32.86,31.7c5.35,6.35,11.1,14.63,9.11,23.38l2.21-.89c-.37-.2-.25,0-.24-.32a1.8,1.8,0,0,1,.37-.82,1.74,1.74,0,0,1,1.61-.84c2.15.33,3.12,3.57,3.69,5.28s3.44,1.07,2.89-.8l-2.95-10.18c-.54-1.85-3.44-1.06-2.9.8l3,10.18,2.89-.8c-1.06-3.22-3.49-8.56-7.85-7.37-3,.83-5.45,5.55-2,7.46a1.52,1.52,0,0,0,2.21-.9c1.8-8-1.8-15.59-6.42-21.9a157.09,157.09,0,0,0-15.71-17.71A234.36,234.36,0,0,0,382,91.58c-1.71-.87-3.23,1.71-1.51,2.59Z"/></svg>