<?xml version="1.0" encoding="UTF-8"?>
<svg id="Ebene_1" data-name="Ebene 1" xmlns="http://www.w3.org/2000/svg" viewBox="0 0 830.88 830.88">
  <defs>
    <style>
      .cls-1 {
        fill: #264e9d;
      }

      .cls-2 {
        fill: #010101;
      }
    </style>
  </defs>
  <g>
    <path class="cls-1" d="m64.45,375.31c-.48,4.34-1.88,7.89-4.21,10.66-2.33,2.76-5.7,4.22-10.11,4.36l-.63-5.5c2.33-.13,4.21-.65,5.64-1.55,1.43-.9,2.5-2.1,3.22-3.59.72-1.49,1.18-3.12,1.37-4.88.29-2.62,0-4.76-.89-6.4-.88-1.64-2.21-2.56-3.97-2.75-1.81-.2-3.17.39-4.07,1.76-.9,1.38-1.73,3.3-2.48,5.78l-.82,2.88c-.63,2.2-1.45,4.19-2.46,5.96-1.01,1.77-2.27,3.13-3.78,4.08-1.5.95-3.3,1.3-5.41,1.07-3.15-.35-5.47-1.83-6.97-4.46-1.5-2.63-2.03-5.94-1.59-9.95.43-3.96,1.68-7.07,3.74-9.33,2.06-2.26,4.75-3.57,8.07-3.93l.78,5.45c-2.58.15-4.47.98-5.67,2.49-1.2,1.51-1.94,3.46-2.2,5.84-.26,2.39-.03,4.32.7,5.8.73,1.48,1.96,2.31,3.67,2.5,1.67.18,2.97-.34,3.9-1.56.93-1.23,1.71-2.92,2.33-5.07l.82-2.88c.7-2.43,1.53-4.6,2.49-6.5.96-1.9,2.19-3.36,3.7-4.37,1.51-1.02,3.39-1.4,5.63-1.16,3.44.38,5.94,1.94,7.52,4.7,1.58,2.76,2.14,6.28,1.67,10.58Z"/>
    <path class="cls-1" d="m69.35,344.25c-.52,2.39-1.41,4.48-2.68,6.27s-2.83,3.07-4.66,3.85c-1.84.78-3.91.92-6.21.43-2.35-.51-4.16-1.49-5.44-2.94s-2.1-3.25-2.44-5.39-.26-4.43.27-6.87l2.51-11.61-2.53-.55c-2.44-.53-4.52-.23-6.23.9-1.72,1.13-2.88,3.1-3.49,5.91-.6,2.77-.4,5.07.61,6.91,1,1.84,2.57,3.28,4.7,4.33l-2.82,4.84c-1.8-.98-3.36-2.25-4.66-3.81-1.31-1.56-2.22-3.46-2.74-5.71-.52-2.25-.47-4.8.15-7.67.95-4.41,2.83-7.59,5.64-9.54,2.8-1.95,6.27-2.47,10.4-1.58l15.55,3.36c1.41.3,2.25-.2,2.54-1.51l.69-3.17,4.71,1.02-1.05,4.86c-.33,1.55-1.04,2.7-2.11,3.45-1.07.75-2.33.97-3.79.65l-.35-.08-.18.84c.78.71,1.56,1.6,2.33,2.68.77,1.08,1.32,2.43,1.62,4.07.31,1.64.2,3.65-.31,6.05Zm-4.65-1.67c.71-3.28.31-6.16-1.19-8.62-1.5-2.46-4.02-4.07-7.54-4.83l-.77-.17-2.47,11.4c-.48,2.21-.39,4.13.26,5.77.65,1.64,1.94,2.67,3.86,3.08s3.58,0,4.98-1.24c1.4-1.24,2.35-3.04,2.86-5.39Z"/>
    <path class="cls-1" d="m89.43,318.37l-4.78-1.6,6.42-19.11c.44-1.32-.02-2.21-1.38-2.67l-12.15-4.08-.32.96c.8.78,1.51,1.79,2.13,3.03.62,1.25.96,2.72,1.03,4.41.06,1.69-.29,3.68-1.05,5.95-.81,2.41-2.08,4.45-3.8,6.13-1.73,1.67-3.81,2.75-6.25,3.22-2.44.47-5.13.21-8.09-.78l-20.27-6.81,1.81-5.39,19.86,6.67c3.28,1.1,5.94,1.07,8-.08,2.06-1.16,3.56-3.15,4.51-5.97,1.07-3.18.9-6.15-.5-8.9s-4.18-4.82-8.32-6.21l-16.79-5.64,1.81-5.39,41.16,13.82c1.82.61,3.08,1.6,3.78,2.98.7,1.38.73,3.04.07,5l-6.88,20.48Z"/>
    <path class="cls-1" d="m94.77,263.84l-44.52-23.62,2.67-5.02,18.38,9.75.47-.89c-.71-.92-1.25-2.03-1.61-3.34-.37-1.31-.46-2.8-.28-4.47.18-1.67.83-3.56,1.96-5.69,1.24-2.33,2.84-4.16,4.82-5.47,1.98-1.32,4.2-2.02,6.67-2.12,2.47-.1,5.11.59,7.91,2.08l18.83,9.99-2.67,5.02-18.44-9.79c-3.09-1.64-5.75-2.06-7.97-1.26-2.22.81-4.03,2.52-5.42,5.15-1.6,3.01-1.92,5.98-.97,8.9.95,2.92,3.35,5.41,7.21,7.45l15.65,8.3-2.67,5.02Z"/>
    <path class="cls-1" d="m124.6,214.9c-2.01,2.93-4.4,5.07-7.17,6.43-2.77,1.36-5.7,1.88-8.8,1.55-3.1-.32-6.13-1.51-9.1-3.55l-.71-.49c-3-2.07-5.21-4.49-6.63-7.26-1.41-2.78-1.99-5.68-1.74-8.71.25-3.03,1.34-5.95,3.27-8.76,1.88-2.73,4.12-4.74,6.73-6.03,2.61-1.29,5.41-1.79,8.4-1.48,2.99.31,5.95,1.47,8.88,3.48l2.14,1.47-16.28,23.67c3.21,2.03,6.34,2.7,9.41,2.01,3.07-.69,5.58-2.46,7.54-5.3,1.71-2.49,2.46-4.8,2.24-6.94-.22-2.13-.88-4.1-1.97-5.9l4.73-2.69c.82,1.44,1.48,3.1,1.99,4.99.5,1.89.59,3.96.27,6.21-.33,2.25-1.39,4.68-3.18,7.29Zm-24.83-2.39l12.97-18.87c-2.8-1.69-5.53-2.21-8.19-1.57-2.66.65-4.89,2.28-6.68,4.89-1.82,2.65-2.57,5.34-2.23,8.08.33,2.73,1.71,5.22,4.13,7.47Z"/>
    <path class="cls-1" d="m138.13,194.96l-39.18-31.71,3.58-4.42,39.18,31.71-3.58,4.42Z"/>
    <path class="cls-1" d="m148.14,182.94l-37.75-33.39,3.77-4.26,37.75,33.4-3.77,4.26Z"/>
    <path class="cls-1" d="m170.55,160.86c-2.56,2.46-5.33,4.1-8.32,4.91-2.99.81-5.96.76-8.93-.15-2.97-.91-5.74-2.69-8.3-5.35l-.65-.67c-2.53-2.63-4.2-5.45-5-8.47-.81-3.02-.75-6.01.17-8.96.92-2.95,2.66-5.66,5.22-8.12,2.56-2.46,5.33-4.1,8.32-4.91,2.99-.81,5.97-.75,8.96.17,2.99.92,5.75,2.7,8.27,5.33l.65.67c2.56,2.66,4.24,5.5,5.03,8.5.79,3,.72,5.98-.2,8.93-.92,2.95-2.66,5.66-5.22,8.12Zm-3.54-3.68c2.7-2.6,4.03-5.52,3.99-8.78-.04-3.26-1.46-6.34-4.25-9.25l-.45-.47c-2.79-2.91-5.82-4.44-9.08-4.61-3.25-.16-6.23,1.05-8.93,3.65-2.66,2.56-3.99,5.48-3.96,8.76.02,3.28,1.43,6.37,4.23,9.27l.45.47c2.8,2.91,5.83,4.43,9.1,4.58,3.27.15,6.24-1.06,8.9-3.62Z"/>
    <path class="cls-1" d="m180.71,132.36l-23.37-28.61,4.52-3.69,23.37,28.61-4.52,3.69Zm11.39,9.39c-1.08.88-2.27,1.26-3.57,1.15-1.3-.11-2.41-.73-3.32-1.84s-1.29-2.32-1.14-3.62c.15-1.3.76-2.39,1.84-3.27,1.12-.91,2.32-1.3,3.6-1.17,1.28.13,2.38.75,3.29,1.87s1.3,2.32,1.17,3.6c-.13,1.28-.75,2.38-1.87,3.29Z"/>
  </g>
  <g>
    <path class="cls-2" d="m536.62,83.53c-4.11-1.48-7.23-3.68-9.37-6.6-2.14-2.92-2.76-6.53-1.86-10.85l5.5.68c-.42,2.3-.36,4.25.18,5.85.54,1.6,1.46,2.93,2.74,3.97,1.28,1.05,2.75,1.88,4.42,2.48,2.48.9,4.62,1.11,6.43.64,1.8-.47,3.01-1.54,3.61-3.21.62-1.71.37-3.17-.76-4.37-1.12-1.2-2.8-2.45-5.03-3.77l-2.61-1.48c-1.99-1.13-3.73-2.39-5.21-3.8-1.48-1.4-2.51-2.95-3.07-4.63-.57-1.68-.49-3.52.23-5.51,1.08-2.98,3.07-4.89,5.97-5.73,2.91-.84,6.25-.57,10.05.8,3.75,1.35,6.48,3.3,8.19,5.83,1.71,2.53,2.35,5.46,1.92,8.77l-5.48-.52c.46-2.54.09-4.57-1.09-6.1-1.18-1.52-2.9-2.7-5.16-3.51-2.26-.82-4.19-1.04-5.8-.68-1.61.36-2.71,1.36-3.3,2.98-.57,1.58-.37,2.97.6,4.16.97,1.19,2.43,2.35,4.38,3.46l2.6,1.48c2.2,1.25,4.11,2.57,5.73,3.95,1.62,1.38,2.75,2.92,3.38,4.63.63,1.71.57,3.62-.2,5.75-1.17,3.25-3.29,5.32-6.34,6.21-3.05.89-6.61.6-10.67-.87Z"/>
    <path class="cls-2" d="m565.65,95.61c-2.2-1.07-4.02-2.43-5.46-4.08-1.44-1.66-2.32-3.47-2.65-5.44-.33-1.97.02-4.01,1.05-6.13,1.05-2.16,2.43-3.69,4.14-4.59,1.72-.9,3.66-1.27,5.82-1.1,2.16.17,4.36.79,6.61,1.88l10.69,5.18,1.13-2.33c1.09-2.25,1.29-4.34.6-6.27-.69-1.93-2.33-3.53-4.92-4.78-2.55-1.23-4.83-1.58-6.86-1.04-2.02.54-3.79,1.72-5.32,3.55l-4.04-3.88c1.38-1.52,2.98-2.73,4.8-3.64,1.82-.9,3.89-1.34,6.2-1.32,2.31.02,4.78.67,7.42,1.95,4.06,1.97,6.71,4.54,7.94,7.72,1.23,3.18.93,6.68-.91,10.48l-6.93,14.32c-.63,1.3-.34,2.24.87,2.82l2.92,1.41-2.1,4.34-4.47-2.17c-1.42-.69-2.38-1.64-2.85-2.86-.48-1.22-.39-2.5.26-3.84l.16-.32-.78-.38c-.87.59-1.92,1.14-3.15,1.63-1.23.5-2.67.7-4.34.62-1.67-.09-3.6-.66-5.8-1.73Zm2.72-4.12c3.02,1.46,5.91,1.75,8.66.87,2.75-.88,4.91-2.94,6.47-6.18l.34-.71-10.5-5.08c-2.03-.98-3.92-1.35-5.67-1.1-1.75.25-3.05,1.26-3.91,3.03-.86,1.77-.85,3.48.03,5.14.88,1.65,2.4,3,4.56,4.05Z"/>
    <path class="cls-2" d="m586.07,121.22l2.68-4.27,17.07,10.73c1.18.74,2.15.5,2.92-.72l6.82-10.85-.85-.54c-.94.6-2.09,1.05-3.45,1.36-1.36.31-2.87.3-4.53-.04s-3.51-1.14-5.54-2.42c-2.15-1.35-3.84-3.07-5.06-5.14-1.22-2.07-1.77-4.35-1.66-6.83.11-2.48,1-5.04,2.66-7.68l11.38-18.1,4.82,3.03-11.15,17.74c-1.84,2.93-2.44,5.53-1.8,7.8.64,2.27,2.22,4.2,4.74,5.79,2.84,1.79,5.77,2.32,8.77,1.6,3-.72,5.67-2.93,7.99-6.63l9.43-14.99,4.82,3.03-23.11,36.76c-1.02,1.62-2.28,2.62-3.79,2.98-1.5.36-3.13,0-4.87-1.11l-18.29-11.5Z"/>
    <path class="cls-2" d="m637.83,139.22l33.37-37.77,4.26,3.77-13.78,15.59.76.67c1.06-.47,2.27-.74,3.62-.79,1.36-.05,2.83.21,4.41.77,1.58.57,3.27,1.64,5.07,3.23,1.98,1.75,3.38,3.74,4.19,5.96.82,2.23.99,4.56.51,6.98-.48,2.43-1.77,4.83-3.86,7.2l-14.11,15.97-4.26-3.77,13.83-15.65c2.32-2.63,3.35-5.11,3.08-7.46-.26-2.35-1.51-4.51-3.74-6.48-2.55-2.26-5.36-3.26-8.42-3.02-3.06.24-6.04,2-8.93,5.27l-11.73,13.27-4.26-3.77Z"/>
    <path class="cls-2" d="m678.47,179.65c-2.38-2.64-3.91-5.46-4.58-8.47-.68-3.01-.5-5.98.54-8.92,1.04-2.94,2.89-5.61,5.57-8.02l.64-.58c2.71-2.44,5.58-4.03,8.61-4.75,3.03-.73,5.99-.61,8.88.33,2.89.95,5.48,2.69,7.76,5.22,2.22,2.46,3.65,5.11,4.3,7.95.65,2.84.48,5.68-.52,8.51-1,2.84-2.82,5.44-5.45,7.82l-1.93,1.73-19.23-21.34c-2.72,2.65-4.1,5.54-4.15,8.68-.04,3.14,1.09,6,3.4,8.56,2.02,2.25,4.1,3.51,6.23,3.79,2.12.28,4.19.1,6.2-.54l1.51,5.23c-1.59.46-3.36.72-5.32.77-1.96.05-3.99-.34-6.11-1.18-2.11-.84-4.23-2.44-6.35-4.79Zm8.11-23.59l15.33,17.01c2.3-2.33,3.44-4.86,3.43-7.6-.01-2.74-1.08-5.28-3.2-7.64-2.15-2.39-4.6-3.74-7.33-4.05-2.74-.31-5.48.45-8.22,2.27Z"/>
    <path class="cls-2" d="m694.7,197.44l39.95-30.72,3.47,4.51-39.95,30.72-3.47-4.51Z"/>
    <path class="cls-2" d="m704.08,210l41.27-28.93,3.26,4.66-41.27,28.93-3.26-4.66Z"/>
    <path class="cls-2" d="m720.32,236.93c-1.8-3.06-2.74-6.14-2.83-9.23-.09-3.09.65-5.98,2.23-8.65,1.57-2.68,3.95-4.95,7.14-6.82l.81-.47c3.15-1.85,6.28-2.81,9.41-2.89s6.01.67,8.67,2.26c2.66,1.59,4.88,3.91,6.68,6.97,1.8,3.06,2.74,6.14,2.83,9.23.09,3.09-.66,5.98-2.26,8.67-1.59,2.69-3.96,4.96-7.11,6.8l-.81.47c-3.19,1.87-6.33,2.84-9.44,2.91-3.1.07-5.99-.69-8.64-2.28-2.66-1.59-4.88-3.91-6.68-6.97Zm4.41-2.59c1.89,3.23,4.43,5.21,7.61,5.93s6.51.06,9.98-1.98l.56-.33c3.48-2.04,5.68-4.62,6.6-7.75.92-3.13.43-6.31-1.46-9.54-1.87-3.19-4.4-5.15-7.59-5.9-3.19-.74-6.53-.1-10,1.95l-.56.33c-3.48,2.04-5.67,4.63-6.58,7.78-.91,3.15-.43,6.32,1.44,9.5Z"/>
    <path class="cls-2" d="m733.86,262.32c-.6-1.25-.7-2.5-.28-3.74.42-1.24,1.27-2.17,2.57-2.8,1.3-.62,2.56-.71,3.79-.27s2.14,1.3,2.75,2.55c.62,1.3.72,2.55.3,3.77-.43,1.22-1.29,2.14-2.58,2.76-1.3.62-2.56.72-3.77.3-1.22-.43-2.14-1.29-2.76-2.58Zm11.79-8.87l33.28-16.03,2.53,5.25-33.28,16.03-2.53-5.25Z"/>
    <path class="cls-2" d="m750.22,302.44c-1.41-4.13-1.65-7.95-.71-11.44.94-3.49,3.37-6.24,7.31-8.24l2.9,4.72c-2.06,1.11-3.54,2.37-4.45,3.8-.91,1.43-1.37,2.97-1.39,4.62-.02,1.65.26,3.32.83,5,.85,2.5,2.03,4.3,3.52,5.42,1.5,1.11,3.08,1.38,4.76.81,1.73-.59,2.7-1.7,2.94-3.32.23-1.63.16-3.72-.2-6.28l-.48-2.96c-.37-2.26-.46-4.41-.3-6.44.17-2.03.73-3.8,1.69-5.29.96-1.5,2.44-2.58,4.44-3.26,3-1.02,5.73-.66,8.21,1.08,2.47,1.74,4.36,4.52,5.66,8.34,1.29,3.77,1.48,7.12.57,10.04-.91,2.92-2.79,5.25-5.64,6.98l-3.02-4.6c2.27-1.23,3.63-2.78,4.08-4.66.45-1.88.29-3.95-.49-6.22-.77-2.27-1.81-3.92-3.1-4.95-1.29-1.03-2.75-1.27-4.39-.71-1.59.54-2.55,1.57-2.87,3.07-.32,1.5-.31,3.36.04,5.58l.48,2.96c.4,2.5.57,4.81.5,6.94-.06,2.12-.56,3.97-1.5,5.53-.94,1.56-2.47,2.71-4.61,3.44-3.27,1.12-6.21.76-8.81-1.06-2.6-1.83-4.6-4.78-5.99-8.87Z"/>
    <path class="cls-2" d="m758.94,332.64c-.54-2.39-.62-4.66-.23-6.82s1.26-3.98,2.59-5.47c1.33-1.49,3.15-2.49,5.44-3.02,2.34-.53,4.4-.41,6.18.36,1.78.78,3.28,2.06,4.5,3.85s2.11,3.9,2.67,6.33l2.64,11.58,2.53-.58c2.43-.56,4.19-1.71,5.27-3.46,1.08-1.75,1.3-4.03.66-6.83-.63-2.76-1.79-4.76-3.48-6-1.69-1.24-3.72-1.88-6.09-1.93l.5-5.58c2.05.12,3.99.61,5.84,1.47,1.84.86,3.48,2.2,4.9,4.01s2.46,4.15,3.11,7.01c1,4.4.65,8.07-1.06,11.03-1.71,2.95-4.63,4.9-8.75,5.84l-15.51,3.54c-1.4.32-1.96,1.14-1.66,2.45l.72,3.16-4.7,1.07-1.11-4.84c-.35-1.54-.2-2.88.45-4.02.65-1.13,1.7-1.87,3.15-2.2l.35-.08-.19-.84c-1.01-.31-2.09-.79-3.25-1.44-1.16-.65-2.22-1.65-3.2-3-.97-1.35-1.73-3.22-2.28-5.61Zm4.92-.46c.75,3.27,2.33,5.71,4.73,7.3,2.41,1.59,5.37,1.99,8.88,1.19l.77-.18-2.6-11.37c-.5-2.2-1.4-3.9-2.68-5.11-1.29-1.21-2.89-1.59-4.81-1.16-1.92.44-3.25,1.52-3.99,3.24-.74,1.72-.84,3.75-.31,6.09Z"/>
    <path class="cls-2" d="m751.72,364.6l5.01-.57,2.29,20.03c.16,1.38.95,1.99,2.38,1.83l12.73-1.46-.12-1c-1.06-.36-2.13-.98-3.22-1.84-1.09-.87-2.02-2.05-2.8-3.56-.78-1.51-1.3-3.45-1.57-5.83-.29-2.53,0-4.92.85-7.16.85-2.25,2.28-4.1,4.29-5.56,2.01-1.46,4.56-2.37,7.66-2.73l21.25-2.43.65,5.65-20.82,2.38c-3.43.39-5.84,1.55-7.21,3.47-1.37,1.92-1.89,4.36-1.55,7.32.38,3.34,1.79,5.96,4.23,7.85,2.44,1.9,5.83,2.59,10.17,2.1l17.6-2.02.65,5.65-43.13,4.94c-1.91.22-3.47-.15-4.69-1.09-1.22-.95-1.95-2.45-2.18-4.5l-2.46-21.46Z"/>
    <path class="cls-2" d="m770.05,416.29l50.34,2.37-.27,5.68-20.79-.98-.05,1.01c1.03.53,1.99,1.31,2.88,2.33.89,1.03,1.61,2.33,2.16,3.92.55,1.59.77,3.58.66,5.98-.12,2.64-.8,4.97-2.02,7-1.23,2.03-2.93,3.62-5.13,4.77-2.19,1.15-4.87,1.65-8.04,1.5l-21.29-1,.27-5.68,20.86.98c3.5.16,6.08-.59,7.75-2.27,1.66-1.68,2.57-4,2.71-6.97.16-3.41-.81-6.23-2.92-8.46-2.11-2.24-5.34-3.46-9.7-3.66l-17.69-.83.27-5.68Z"/>
    <path class="cls-2" d="m763.97,473.27c.57-3.51,1.82-6.46,3.74-8.88,1.92-2.41,4.35-4.13,7.29-5.16,2.94-1.03,6.19-1.26,9.74-.68l.85.14c3.6.58,6.63,1.83,9.09,3.74,2.46,1.91,4.23,4.29,5.3,7.13,1.07,2.85,1.33,5.95.78,9.32-.53,3.27-1.7,6.05-3.5,8.33-1.81,2.28-4.13,3.93-6.96,4.92-2.84,1-6.01,1.21-9.51.64l-2.56-.42,4.6-28.36c-3.77-.47-6.89.27-9.37,2.2-2.48,1.93-3.99,4.6-4.55,8.01-.48,2.98-.17,5.39.94,7.23,1.11,1.83,2.55,3.33,4.3,4.49l-3.13,4.45c-1.35-.95-2.66-2.17-3.93-3.67-1.27-1.49-2.23-3.33-2.9-5.5-.67-2.18-.75-4.83-.24-7.95Zm23.47-8.44l-3.67,22.6c3.25.33,5.94-.36,8.07-2.08,2.13-1.72,3.45-4.15,3.95-7.27.52-3.17.04-5.93-1.43-8.26-1.47-2.33-3.78-3.99-6.92-4.99Z"/>
    <path class="cls-2" d="m760.25,497.05l48.96,11.96-1.35,5.53-48.96-11.96,1.35-5.53Z"/>
    <path class="cls-2" d="m756.32,512.21l48.38,14.13-1.59,5.46-48.38-14.13,1.59-5.46Z"/>
    <path class="cls-2" d="m745.43,541.73c1.27-3.32,3.09-5.98,5.44-7.98,2.36-2,5.08-3.22,8.15-3.66,3.07-.44,6.33,0,9.79,1.32l.87.33c3.41,1.3,6.12,3.15,8.13,5.54,2.01,2.39,3.23,5.12,3.65,8.18.42,3.06,0,6.25-1.28,9.57s-3.09,5.98-5.44,7.98c-2.36,2-5.09,3.22-8.18,3.65s-6.35,0-9.75-1.31l-.87-.33c-3.45-1.32-6.17-3.17-8.17-5.55-1.99-2.38-3.2-5.11-3.62-8.17-.42-3.07,0-6.26,1.28-9.57Zm4.77,1.83c-1.34,3.5-1.3,6.71.12,9.65,1.42,2.93,4.01,5.12,7.78,6.56l.61.23c3.76,1.44,7.16,1.55,10.17.31,3.02-1.23,5.2-3.6,6.53-7.1,1.32-3.45,1.28-6.66-.14-9.61-1.41-2.96-4-5.16-7.77-6.6l-.61-.23c-3.77-1.44-7.16-1.54-10.19-.28-3.03,1.26-5.2,3.61-6.52,7.06Z"/>
    <path class="cls-2" d="m734.05,568.16c.6-1.25,1.52-2.11,2.75-2.56s2.49-.36,3.79.26c1.3.62,2.16,1.55,2.57,2.79.42,1.24.32,2.48-.28,3.74-.62,1.3-1.54,2.16-2.76,2.59-1.22.43-2.47.33-3.77-.29-1.3-.62-2.16-1.54-2.59-2.76-.43-1.22-.33-2.47.29-3.77Zm14.29,3.67l33.29,15.99-2.52,5.26-33.29-15.99,2.53-5.26Z"/>
    <path class="cls-2" d="m712.93,605.99c2.35-3.68,5.18-6.25,8.49-7.7,3.31-1.45,6.98-1.26,11,.56l-1.87,5.21c-2.15-.91-4.06-1.28-5.75-1.1-1.68.18-3.17.78-4.48,1.8-1.3,1.02-2.43,2.28-3.39,3.78-1.42,2.23-2.1,4.27-2.03,6.13.06,1.86.85,3.27,2.34,4.23,1.54.98,3.01,1.05,4.43.22,1.41-.84,3.01-2.2,4.78-4.08l2.01-2.22c1.54-1.7,3.15-3.12,4.84-4.25,1.69-1.14,3.42-1.8,5.19-1.99,1.77-.18,3.54.29,5.32,1.43,2.67,1.7,4.1,4.06,4.28,7.08.18,3.02-.81,6.23-2.98,9.63-2.14,3.36-4.63,5.6-7.48,6.72-2.85,1.12-5.84,1.1-8.98-.04l1.71-5.23c2.38,1,4.44,1.09,6.19.27,1.75-.82,3.27-2.25,4.56-4.27s1.93-3.86,1.93-5.51c0-1.65-.73-2.94-2.19-3.87-1.42-.9-2.81-1.01-4.19-.32-1.38.69-2.82,1.86-4.33,3.52l-2.01,2.22c-1.71,1.87-3.41,3.45-5.11,4.73-1.7,1.28-3.45,2.04-5.26,2.29-1.81.24-3.66-.24-5.56-1.45-2.92-1.86-4.47-4.37-4.67-7.54s.86-6.58,3.18-10.22Z"/>
    <path class="cls-2" d="m694.79,631.7c1.52-1.92,3.25-3.4,5.18-4.44,1.93-1.04,3.89-1.51,5.89-1.4,1.99.11,3.91.9,5.76,2.36,1.88,1.49,3.07,3.17,3.58,5.04.51,1.87.44,3.84-.19,5.92-.63,2.07-1.72,4.08-3.27,6.04l-7.38,9.31,2.03,1.61c1.96,1.55,3.95,2.2,5.99,1.95,2.04-.25,3.95-1.51,5.74-3.76,1.76-2.22,2.6-4.37,2.51-6.46-.09-2.09-.86-4.08-2.3-5.96l4.67-3.1c1.18,1.67,2.02,3.5,2.5,5.48.48,1.98.46,4.09-.06,6.34-.53,2.25-1.7,4.52-3.52,6.81-2.8,3.54-5.89,5.56-9.27,6.07-3.38.51-6.72-.55-10.03-3.17l-12.47-9.89c-1.13-.89-2.11-.82-2.94.24l-2.01,2.54-3.78-3,3.09-3.89c.98-1.24,2.12-1.96,3.42-2.16,1.29-.2,2.52.16,3.69,1.09l.28.22.54-.68c-.39-.98-.69-2.12-.91-3.43-.22-1.31-.11-2.76.34-4.37.45-1.61,1.43-3.37,2.95-5.29Zm3.43,3.55c-2.09,2.63-3,5.39-2.74,8.26.26,2.87,1.81,5.43,4.63,7.67l.62.49,7.25-9.14c1.4-1.77,2.17-3.53,2.31-5.29.14-1.76-.56-3.25-2.1-4.47-1.54-1.22-3.22-1.59-5.02-1.09-1.81.5-3.45,1.69-4.94,3.57Z"/>
    <path class="cls-2" d="m665.35,646.04l3.58,3.54-14.18,14.33c-.98.99-.96,1.99.07,3l9.11,9.01.71-.72c-.38-1.05-.57-2.27-.58-3.66,0-1.39.33-2.86,1.02-4.41s1.88-3.18,3.56-4.88c1.79-1.81,3.83-3.08,6.11-3.83,2.29-.74,4.63-.79,7.03-.14,2.4.65,4.7,2.07,6.92,4.26l15.2,15.04-4,4.04-14.9-14.74c-2.46-2.43-4.86-3.58-7.22-3.45-2.36.13-4.58,1.25-6.68,3.37-2.36,2.39-3.52,5.13-3.47,8.21s1.63,6.17,4.73,9.24l12.59,12.46-4,4.04-30.87-30.53c-1.37-1.35-2.06-2.8-2.09-4.34-.02-1.54.69-3.05,2.14-4.52l15.19-15.36Z"/>
    <path class="cls-2" d="m636.55,692.69l29.64,40.76-4.6,3.34-12.24-16.83-.82.59c.23,1.13.23,2.37-.02,3.71-.24,1.33-.82,2.71-1.71,4.14-.89,1.42-2.31,2.84-4.25,4.25-2.13,1.55-4.38,2.49-6.73,2.8-2.35.32-4.66-.02-6.93-1.02-2.26-.99-4.33-2.77-6.19-5.33l-12.53-17.24,4.6-3.34,12.28,16.89c2.06,2.83,4.27,4.38,6.61,4.63,2.35.25,4.73-.5,7.13-2.25,2.76-2,4.35-4.53,4.78-7.57.43-3.04-.64-6.33-3.21-9.86l-10.42-14.33,4.6-3.34Z"/>
    <path class="cls-2" d="m588.26,723.59c3.09-1.75,6.18-2.62,9.26-2.63,3.08,0,5.95.82,8.59,2.47,2.64,1.65,4.85,4.04,6.62,7.18l.43.75c1.79,3.17,2.72,6.32,2.77,9.43.05,3.11-.7,5.98-2.26,8.59s-3.82,4.76-6.78,6.44c-2.88,1.63-5.78,2.45-8.69,2.47-2.91.02-5.64-.77-8.2-2.36-2.55-1.59-4.7-3.93-6.45-7.02l-1.28-2.26,25.01-14.13c-1.99-3.23-4.51-5.21-7.57-5.94-3.06-.73-6.09-.24-9.1,1.46-2.63,1.49-4.32,3.24-5.05,5.25-.74,2.01-1.01,4.07-.82,6.17l-5.43.34c-.11-1.65.03-3.44.41-5.36.38-1.92,1.2-3.82,2.48-5.7,1.28-1.88,3.3-3.6,6.06-5.16Zm21.26,13.04l-19.93,11.26c1.77,2.75,4,4.41,6.67,5,2.67.58,5.39.1,8.15-1.46,2.8-1.58,4.65-3.68,5.55-6.28.9-2.6.76-5.45-.43-8.52Z"/>
    <path class="cls-2" d="m567.38,735.55l21.28,45.69-5.16,2.4-21.28-45.69,5.16-2.4Z"/>
    <path class="cls-2" d="m553.09,741.96l19.22,46.59-5.26,2.17-19.22-46.59,5.26-2.17Z"/>
    <path class="cls-2" d="m523.26,751.92c3.38-1.08,6.59-1.33,9.63-.74,3.04.59,5.69,1.95,7.96,4.07,2.27,2.12,3.96,4.94,5.09,8.46l.29.89c1.11,3.47,1.37,6.74.76,9.81-.61,3.07-1.97,5.72-4.1,7.97-2.13,2.24-4.88,3.91-8.27,4.99s-6.59,1.33-9.63.74c-3.04-.59-5.69-1.96-7.97-4.1-2.27-2.15-3.97-4.96-5.08-8.43l-.29-.89c-1.13-3.52-1.38-6.8-.77-9.85.61-3.04,1.98-5.69,4.11-7.93,2.13-2.24,4.89-3.91,8.27-4.99Zm1.56,4.87c-3.57,1.14-6.05,3.18-7.45,6.13-1.4,2.94-1.49,6.33-.26,10.17l.2.62c1.23,3.84,3.27,6.55,6.12,8.13,2.85,1.58,6.06,1.8,9.62.66,3.52-1.13,5.99-3.17,7.42-6.12,1.42-2.95,1.52-6.35.29-10.19l-.2-.62c-1.23-3.84-3.28-6.55-6.15-8.12-2.87-1.58-6.07-1.8-9.59-.67Z"/>
    <path class="cls-2" d="m495.51,759.57c1.36-.31,2.59-.13,3.71.54,1.12.68,1.84,1.72,2.16,3.12.32,1.4.13,2.65-.57,3.75-.71,1.1-1.74,1.81-3.09,2.12-1.4.33-2.65.15-3.75-.54-1.09-.68-1.8-1.73-2.13-3.13-.32-1.4-.15-2.65.54-3.75s1.72-1.8,3.13-2.13Zm6.07,13.45l8.34,35.98-5.68,1.32-8.34-35.98,5.68-1.32Z"/>
    <path class="cls-2" d="m452.77,766.73c4.34-.47,8.11.13,11.31,1.82,3.2,1.68,5.35,4.66,6.44,8.93l-5.24,1.8c-.63-2.25-1.54-3.97-2.73-5.17-1.19-1.2-2.59-1.99-4.2-2.37-1.61-.38-3.3-.48-5.06-.28-2.62.28-4.64,1.03-6.06,2.25-1.41,1.21-2.02,2.71-1.83,4.47.2,1.81,1.06,3.01,2.6,3.59,1.54.58,3.59.97,6.17,1.18l2.99.18c2.29.14,4.4.51,6.35,1.12,1.95.61,3.55,1.54,4.79,2.81,1.25,1.26,1.99,2.95,2.21,5.05.34,3.15-.61,5.74-2.85,7.77-2.24,2.03-5.37,3.26-9.38,3.7-3.96.43-7.27-.12-9.92-1.64-2.65-1.52-4.51-3.87-5.58-7.04l5.15-1.93c.7,2.48,1.92,4.15,3.66,5,1.73.85,3.79,1.15,6.18.89,2.39-.26,4.22-.91,5.51-1.94,1.29-1.03,1.84-2.41,1.65-4.13-.18-1.67-.97-2.83-2.37-3.47-1.4-.64-3.21-1.04-5.45-1.18l-2.99-.18c-2.53-.16-4.82-.5-6.88-1.03-2.06-.53-3.75-1.42-5.07-2.67-1.32-1.26-2.1-3.01-2.34-5.25-.37-3.44.62-6.22,2.97-8.36,2.35-2.14,5.67-3.44,9.97-3.91Z"/>
    <path class="cls-2" d="m421.49,768.61c2.45-.04,4.69.36,6.72,1.19,2.03.83,3.63,2.05,4.81,3.67,1.18,1.61,1.79,3.59,1.82,5.95.04,2.4-.5,4.39-1.63,5.97-1.13,1.58-2.69,2.78-4.69,3.6-2,.83-4.25,1.26-6.75,1.3l-11.88.19.04,2.59c.04,2.5.8,4.45,2.29,5.87,1.49,1.42,3.67,2.1,6.55,2.05,2.83-.05,5.03-.77,6.59-2.16s2.61-3.25,3.15-5.56l5.36,1.64c-.54,1.98-1.43,3.78-2.65,5.41-1.22,1.63-2.87,2.95-4.94,3.97-2.07,1.02-4.57,1.55-7.5,1.6-4.51.07-8.03-1.03-10.57-3.32-2.53-2.29-3.83-5.54-3.9-9.77l-.26-15.91c-.02-1.44-.71-2.15-2.05-2.13l-3.24.05-.08-4.82,4.97-.08c1.58-.03,2.86.4,3.84,1.27.97.87,1.47,2.05,1.5,3.54v.36s.87-.01.87-.01c.51-.92,1.21-1.88,2.08-2.88.87-1,2.07-1.83,3.6-2.51,1.53-.67,3.51-1.03,5.96-1.07Zm-.57,4.91c-3.36.05-6.07,1.09-8.12,3.12-2.05,2.02-3.05,4.84-3,8.44v.79s11.67-.19,11.67-.19c2.26-.04,4.11-.56,5.56-1.57,1.45-1.01,2.16-2.5,2.12-4.46s-.81-3.49-2.34-4.57c-1.53-1.08-3.49-1.6-5.89-1.56Z"/>
    <path class="cls-2" d="m391.71,754.68l-.52,5.01-20.05-2.08c-1.38-.14-2.15.5-2.3,1.93l-1.32,12.75,1,.1c.58-.95,1.41-1.87,2.49-2.75,1.08-.88,2.44-1.53,4.08-1.97,1.64-.43,3.65-.53,6.04-.28,2.53.26,4.8,1.05,6.81,2.37,2.01,1.32,3.51,3.11,4.51,5.39,1,2.28,1.33,4.96,1.01,8.07l-2.21,21.27-5.66-.59,2.16-20.84c.36-3.44-.25-6.04-1.83-7.79-1.58-1.76-3.85-2.79-6.81-3.09-3.34-.35-6.2.47-8.58,2.44-2.38,1.97-3.79,5.13-4.24,9.48l-1.83,17.62-5.66-.59,4.48-43.18c.2-1.91.89-3.36,2.08-4.34,1.19-.99,2.81-1.37,4.86-1.16l21.49,2.23Z"/>
    <path class="cls-2" d="m337.34,761.43l-13.29,48.62-5.49-1.5,5.49-20.07-.97-.27c-.74.89-1.71,1.66-2.91,2.3-1.2.64-2.63,1.06-4.3,1.25s-3.66-.03-5.98-.66c-2.55-.7-4.68-1.86-6.4-3.5-1.72-1.64-2.89-3.65-3.54-6.04-.64-2.39-.54-5.11.29-8.17l5.62-20.56,5.49,1.5-5.51,20.14c-.92,3.38-.75,6.07.52,8.05,1.27,1.99,3.34,3.38,6.21,4.16,3.29.9,6.25.56,8.9-1,2.64-1.57,4.54-4.46,5.69-8.67l4.67-17.08,5.49,1.5Z"/>
    <path class="cls-2" d="m283.05,743.04c3.3,1.33,5.91,3.19,7.84,5.59,1.93,2.41,3.08,5.16,3.44,8.25.36,3.09-.13,6.31-1.47,9.65l-.32.8c-1.36,3.38-3.24,6.07-5.64,8.05-2.4,1.98-5.11,3.18-8.12,3.6-3.01.42-6.1,0-9.26-1.28-3.07-1.23-5.52-2.98-7.36-5.25-1.83-2.26-2.92-4.89-3.28-7.87-.35-2.99.13-6.13,1.46-9.42l.97-2.41,26.66,10.71c1.28-3.57,1.25-6.78-.09-9.62-1.34-2.84-3.62-4.91-6.82-6.19-2.81-1.13-5.23-1.35-7.26-.67-2.03.68-3.81,1.75-5.33,3.21l-3.66-4.03c1.22-1.11,2.7-2.12,4.44-3.03,1.74-.91,3.74-1.45,6.01-1.62,2.27-.17,4.87.33,7.81,1.51Zm3.09,24.75l-21.25-8.54c-1.04,3.1-.95,5.88.26,8.33,1.21,2.45,3.29,4.27,6.23,5.45,2.98,1.2,5.77,1.34,8.37.41,2.6-.92,4.72-2.81,6.39-5.66Z"/>
    <path class="cls-2" d="m260.67,734.19l-22.41,45.14-5.09-2.53,22.41-45.14,5.09,2.53Z"/>
    <path class="cls-2" d="m246.75,727.04l-24.39,44.11-4.98-2.75,24.39-44.11,4.98,2.75Z"/>
    <path class="cls-2" d="m220.34,709.96c2.96,1.96,5.16,4.32,6.59,7.06,1.44,2.74,2.04,5.66,1.79,8.75-.24,3.1-1.38,6.18-3.43,9.26l-.52.78c-2.02,3.04-4.41,5.28-7.19,6.72s-5.7,2.04-8.78,1.78c-3.08-.26-6.1-1.37-9.06-3.34-2.96-1.96-5.16-4.32-6.59-7.06-1.44-2.74-2.03-5.67-1.78-8.78.25-3.12,1.39-6.19,3.41-9.23l.52-.78c2.04-3.08,4.45-5.33,7.21-6.75,2.76-1.42,5.68-2.01,8.76-1.75,3.08.26,6.1,1.37,9.06,3.34Zm-2.83,4.26c-3.12-2.07-6.27-2.73-9.44-1.99-3.17.75-5.88,2.8-8.11,6.16l-.36.54c-2.23,3.36-3.07,6.65-2.53,9.86.55,3.21,2.38,5.86,5.5,7.93,3.08,2.04,6.22,2.7,9.41,1.97,3.19-.73,5.91-2.78,8.13-6.14l.36-.54c2.23-3.36,3.06-6.65,2.5-9.88-.57-3.23-2.39-5.86-5.47-7.91Z"/>
    <path class="cls-2" d="m190.32,706.22l-22.86,29.01-4.58-3.61,22.86-29.01,4.58,3.61Zm6.69-13.15c1.09.86,1.73,1.94,1.9,3.24s-.19,2.51-1.08,3.64c-.89,1.13-1.99,1.76-3.29,1.9-1.3.14-2.5-.22-3.59-1.09-1.13-.89-1.77-1.98-1.92-3.26-.15-1.28.22-2.49,1.11-3.62.89-1.13,1.98-1.77,3.26-1.92s2.49.22,3.62,1.11Z"/>
    <path class="cls-2" d="m164.68,664.24c3.09,3.09,4.98,6.41,5.67,9.96.69,3.55-.28,7.09-2.93,10.61l-4.68-2.96c1.36-1.9,2.13-3.69,2.32-5.37.19-1.68-.07-3.27-.79-4.76-.71-1.49-1.7-2.87-2.95-4.12-1.87-1.87-3.71-2.97-5.55-3.31-1.83-.34-3.38.12-4.63,1.37-1.29,1.29-1.68,2.71-1.17,4.28.51,1.56,1.49,3.41,2.95,5.55l1.73,2.44c1.32,1.87,2.36,3.75,3.1,5.65.75,1.9,1.02,3.73.81,5.5-.2,1.76-1.05,3.39-2.55,4.89-2.24,2.24-4.85,3.12-7.84,2.64-2.99-.48-5.9-2.14-8.75-4.99-2.82-2.82-4.46-5.74-4.93-8.76-.47-3.02.19-5.94,1.99-8.76l4.73,2.8c-1.49,2.1-2.03,4.1-1.61,5.98.42,1.88,1.48,3.67,3.18,5.37s3.35,2.73,4.96,3.08c1.61.36,3.03-.08,4.25-1.3,1.19-1.19,1.6-2.53,1.22-4.02s-1.2-3.16-2.49-4.99l-1.73-2.44c-1.46-2.07-2.63-4.07-3.51-6.01-.88-1.94-1.24-3.81-1.09-5.63.15-1.82,1.03-3.52,2.62-5.12,2.45-2.44,5.24-3.42,8.38-2.92,3.14.49,6.24,2.27,9.29,5.33Z"/>
    <path class="cls-2" d="m143.51,640.95c1.54,1.9,2.61,3.91,3.21,6.02.6,2.11.63,4.13.09,6.05s-1.72,3.62-3.55,5.11c-1.86,1.51-3.76,2.31-5.7,2.4-1.94.09-3.85-.4-5.73-1.47-1.89-1.07-3.62-2.57-5.19-4.51l-7.49-9.22-2.01,1.63c-1.94,1.57-3,3.38-3.2,5.43-.2,2.04.61,4.18,2.43,6.42,1.79,2.2,3.71,3.48,5.77,3.85,2.06.37,4.17.05,6.32-.96l2.02,5.23c-1.89.79-3.85,1.21-5.89,1.26-2.03.04-4.09-.43-6.17-1.44-2.08-1-4.04-2.64-5.89-4.91-2.84-3.5-4.15-6.96-3.91-10.36.24-3.41,1.99-6.44,5.27-9.1l12.35-10.03c1.12-.91,1.25-1.88.41-2.93l-2.04-2.52,3.75-3.04,3.13,3.86c1,1.23,1.46,2.5,1.37,3.8-.08,1.31-.7,2.43-1.86,3.36l-.28.23.54.67c1.04-.17,2.22-.21,3.55-.14,1.32.07,2.72.5,4.19,1.28s2.98,2.13,4.52,4.03Zm-4.21,2.58c-2.12-2.61-4.61-4.1-7.47-4.46s-5.69.59-8.49,2.86l-.62.5,7.35,9.06c1.42,1.75,2.98,2.89,4.66,3.4,1.69.52,3.29.15,4.82-1.09s2.24-2.79,2.15-4.67-.9-3.74-2.41-5.6Z"/>
    <path class="cls-2" d="m135.87,609.1l-4.24,2.73-10.91-16.95c-.75-1.17-1.74-1.37-2.95-.59l-10.78,6.94.55.85c1.11-.14,2.34-.07,3.7.23,1.36.29,2.72.95,4.08,1.95,1.36,1.01,2.69,2.52,3.99,4.54,1.38,2.14,2.18,4.41,2.41,6.8.23,2.39-.23,4.69-1.39,6.89s-3.04,4.14-5.67,5.83l-17.98,11.58-3.08-4.78,17.62-11.34c2.91-1.87,4.55-3.97,4.93-6.3.38-2.33-.23-4.75-1.84-7.25-1.82-2.82-4.24-4.55-7.27-5.17-3.03-.62-6.38.25-10.05,2.62l-14.89,9.59-3.08-4.78,36.5-23.5c1.61-1.04,3.18-1.4,4.69-1.09,1.51.31,2.83,1.33,3.95,3.07l11.69,18.16Z"/>
    <path class="cls-2" d="m96.6,570.85l-46.25,20.03-2.26-5.22,19.09-8.27-.4-.92c-1.16-.02-2.37-.3-3.62-.83-1.25-.53-2.47-1.39-3.66-2.57s-2.27-2.88-3.22-5.08c-1.05-2.42-1.47-4.82-1.27-7.18.21-2.36,1.04-4.54,2.5-6.54,1.46-1.99,3.65-3.62,6.56-4.88l19.56-8.47,2.26,5.22-19.16,8.3c-3.21,1.39-5.2,3.21-5.96,5.44-.76,2.24-.54,4.72.64,7.45,1.35,3.13,3.47,5.23,6.34,6.31,2.88,1.08,6.32.76,10.33-.98l16.25-7.04,2.26,5.22Z"/>
    <path class="cls-2" d="m77.01,517c1.03,3.4,1.21,6.61.54,9.62s-2.1,5.62-4.29,7.84c-2.19,2.22-5.01,3.84-8.45,4.89l-.83.25c-3.49,1.05-6.76,1.27-9.81.63s-5.68-1.99-7.89-4.08c-2.21-2.09-3.81-4.76-4.79-8.03-.96-3.17-1.13-6.18-.51-9.02.62-2.84,1.99-5.34,4.1-7.48,2.11-2.14,4.87-3.73,8.27-4.75l2.48-.75,8.31,27.5c3.59-1.24,6.07-3.26,7.45-6.09,1.38-2.82,1.57-5.89.57-9.2-.88-2.9-2.21-4.92-4.02-6.08-1.8-1.16-3.75-1.88-5.84-2.15l.86-5.37c1.63.26,3.35.78,5.14,1.57,1.79.79,3.47,2.01,5.02,3.67,1.56,1.66,2.79,4.01,3.71,7.04Zm-17.39,17.89l-6.62-21.92c-3.07,1.13-5.18,2.93-6.34,5.41-1.16,2.48-1.28,5.24-.36,8.27.93,3.08,2.57,5.34,4.91,6.79,2.34,1.45,5.15,1.93,8.41,1.45Z"/>
    <path class="cls-2" d="m69.92,493.99l-49.24,10.73-1.21-5.56,49.24-10.73,1.21,5.56Z"/>
    <path class="cls-2" d="m66.8,478.67l-49.67,8.54-.96-5.61,49.67-8.54.96,5.61Z"/>
    <path class="cls-2" d="m63.62,447.38c.32,3.54-.15,6.72-1.38,9.56-1.24,2.83-3.14,5.12-5.71,6.87-2.57,1.75-5.69,2.79-9.37,3.12l-.93.08c-3.63.33-6.88-.14-9.74-1.4s-5.15-3.18-6.88-5.75c-1.72-2.57-2.75-5.62-3.06-9.16-.32-3.54.15-6.72,1.38-9.56,1.24-2.83,3.16-5.13,5.75-6.88,2.59-1.75,5.7-2.79,9.34-3.11l.93-.08c3.68-.33,6.94.14,9.78,1.4,2.84,1.26,5.12,3.18,6.84,5.75,1.72,2.57,2.75,5.62,3.06,9.16Zm-5.09.46c-.33-3.73-1.78-6.6-4.35-8.61-2.57-2.01-5.86-2.84-9.87-2.48l-.65.06c-4.02.36-7.11,1.76-9.27,4.19-2.17,2.44-3.08,5.52-2.75,9.25.33,3.68,1.78,6.54,4.35,8.57,2.57,2.04,5.86,2.87,9.88,2.51l.65-.06c4.02-.36,7.11-1.77,9.27-4.23,2.17-2.46,3.08-5.53,2.75-9.21Z"/>
    <path class="cls-2" d="m47.79,421.79l-36.93.6-.09-5.83,36.93-.6.09,5.83Zm14.42-3.11c.02,1.39-.42,2.56-1.31,3.51-.9.95-2.07,1.44-3.5,1.46s-2.62-.43-3.55-1.35c-.93-.92-1.4-2.08-1.42-3.47-.02-1.44.41-2.62,1.31-3.55.9-.93,2.07-1.4,3.5-1.43,1.44-.02,2.62.41,3.55,1.31.93.9,1.4,2.07,1.42,3.51Z"/>
    <path class="cls-2" d="m227.25,116.44c-3.69,2.34-7.34,3.47-10.95,3.37-3.61-.09-6.86-1.81-9.72-5.17l3.9-3.93c1.56,1.74,3.14,2.88,4.74,3.43,1.6.55,3.21.64,4.82.27,1.61-.37,3.17-1.03,4.67-1.98,2.23-1.42,3.71-2.98,4.44-4.7.73-1.71.62-3.32-.33-4.82-.98-1.54-2.28-2.23-3.92-2.07-1.64.16-3.65.72-6.06,1.67l-2.76,1.16c-2.11.89-4.17,1.49-6.19,1.8-2.02.32-3.87.18-5.54-.4-1.68-.58-3.08-1.77-4.22-3.55-1.7-2.67-1.99-5.42-.88-8.23,1.11-2.81,3.37-5.3,6.78-7.46,3.36-2.14,6.57-3.11,9.62-2.91,3.05.19,5.76,1.48,8.12,3.84l-3.76,4.01c-1.73-1.92-3.56-2.87-5.49-2.87-1.93,0-3.91.65-5.93,1.94-2.03,1.29-3.39,2.68-4.09,4.17-.7,1.5-.58,2.97.34,4.43.9,1.42,2.12,2.11,3.66,2.07,1.54-.04,3.34-.49,5.41-1.35l2.76-1.16c2.34-.97,4.55-1.68,6.63-2.12,2.08-.44,3.99-.39,5.73.16,1.74.54,3.21,1.77,4.42,3.67,1.85,2.92,2.2,5.85,1.04,8.81-1.16,2.96-3.57,5.59-7.21,7.91Z"/>
    <path class="cls-2" d="m254.57,100.84c-2.19,1.09-4.38,1.7-6.57,1.83-2.19.13-4.16-.28-5.92-1.23-1.76-.95-3.16-2.47-4.21-4.58-1.07-2.15-1.44-4.18-1.1-6.09.33-1.91,1.23-3.67,2.68-5.28,1.45-1.61,3.29-2.97,5.53-4.08l10.63-5.3-1.16-2.32c-1.11-2.23-2.65-3.67-4.6-4.3-1.95-.64-4.22-.31-6.8.97-2.54,1.26-4.21,2.86-5.01,4.79-.81,1.93-.96,4.06-.44,6.37l-5.54.83c-.36-2.02-.34-4.02.06-6.02.4-2,1.31-3.9,2.74-5.71,1.43-1.81,3.46-3.37,6.08-4.68,4.04-2.01,7.69-2.53,10.97-1.56,3.27.97,5.85,3.35,7.73,7.13l7.1,14.24c.64,1.29,1.56,1.63,2.77,1.03l2.9-1.45,2.15,4.32-4.45,2.22c-1.42.71-2.75.88-4.01.51-1.26-.37-2.21-1.22-2.88-2.55l-.16-.32-.77.39c-.07,1.05-.28,2.22-.63,3.49-.36,1.28-1.08,2.55-2.16,3.81-1.09,1.27-2.72,2.44-4.92,3.54Zm-1.6-4.67c3.01-1.5,5-3.6,5.98-6.32.98-2.71.67-5.68-.94-8.9l-.35-.71-10.44,5.2c-2.02,1.01-3.46,2.28-4.33,3.81-.87,1.53-.87,3.18,0,4.94.88,1.76,2.24,2.8,4.09,3.11,1.85.31,3.84-.06,5.99-1.14Z"/>
    <path class="cls-2" d="m287.32,100.34l-1.74-4.73,18.93-6.94c1.31-.48,1.71-1.4,1.22-2.75l-4.41-12.03-.95.35c-.1,1.11-.45,2.3-1.03,3.56-.59,1.26-1.52,2.45-2.8,3.56-1.28,1.11-3.05,2.08-5.3,2.9-2.39.88-4.78,1.16-7.16.86-2.39-.3-4.53-1.25-6.42-2.86s-3.38-3.87-4.45-6.8l-7.36-20.08,5.34-1.96,7.21,19.67c1.19,3.24,2.88,5.31,5.07,6.19,2.19.88,4.68.81,7.48-.21,3.15-1.16,5.37-3.14,6.63-5.96,1.27-2.82,1.15-6.27-.35-10.38l-6.1-16.63,5.34-1.96,14.95,40.76c.66,1.8.67,3.41.04,4.82-.63,1.41-1.92,2.47-3.86,3.18l-20.28,7.44Z"/>
    <path class="cls-2" d="m333.21,70.4l-9.39-49.52,5.59-1.06,3.88,20.44.99-.19c.27-1.13.81-2.24,1.6-3.34.79-1.1,1.9-2.11,3.31-3.01,1.42-.9,3.3-1.58,5.66-2.03,2.59-.49,5.02-.38,7.28.34,2.26.72,4.2,2.01,5.83,3.88,1.62,1.87,2.73,4.36,3.32,7.47l3.97,20.94-5.59,1.06-3.89-20.51c-.65-3.44-1.99-5.78-4-7.01-2.02-1.23-4.49-1.57-7.41-1.01-3.35.64-5.87,2.24-7.55,4.8-1.69,2.57-2.12,6-1.31,10.29l3.3,17.4-5.59,1.06Z"/>
    <path class="cls-2" d="m390.06,63.09c-3.54.26-6.71-.27-9.5-1.58-2.79-1.31-5.03-3.28-6.71-5.9-1.68-2.62-2.66-5.73-2.92-9.32l-.06-.86c-.27-3.64.24-6.88,1.53-9.71,1.28-2.84,3.19-5.11,5.71-6.81s5.48-2.68,8.88-2.92c3.3-.24,6.27.25,8.92,1.48,2.64,1.23,4.78,3.1,6.4,5.63,1.63,2.53,2.57,5.56,2.83,9.11l.19,2.59-28.65,2.1c.42,3.77,1.86,6.64,4.31,8.6,2.45,1.96,5.4,2.82,8.85,2.56,3.02-.22,5.29-1.08,6.81-2.59,1.53-1.51,2.65-3.25,3.37-5.23l5.06,2.01c-.61,1.54-1.5,3.09-2.65,4.67-1.16,1.58-2.72,2.94-4.68,4.1-1.96,1.15-4.52,1.85-7.68,2.08Zm-13.66-20.88l22.83-1.67c-.43-3.24-1.73-5.7-3.9-7.37-2.17-1.67-4.83-2.39-7.99-2.16-3.21.23-5.78,1.34-7.7,3.31-1.93,1.97-3.01,4.6-3.25,7.89Z"/>
    <path class="cls-2" d="m413.92,61.15l.82-50.39,5.69.09-.82,50.39-5.69-.09Z"/>
    <path class="cls-2" d="m429.73,61.46l2.4-50.34,5.68.27-2.4,50.34-5.68-.27Z"/>
    <path class="cls-2" d="m460.98,65.11c-3.52-.45-6.54-1.59-9.03-3.41-2.5-1.82-4.33-4.17-5.48-7.06-1.15-2.88-1.49-6.16-1.02-9.82l.12-.93c.47-3.62,1.62-6.69,3.47-9.21s4.21-4.35,7.09-5.48c2.88-1.13,6.08-1.47,9.6-1.01,3.52.45,6.53,1.59,9.03,3.41,2.5,1.82,4.33,4.19,5.48,7.09,1.15,2.91,1.49,6.17,1.03,9.79l-.12.93c-.47,3.67-1.63,6.75-3.48,9.24-1.85,2.5-4.21,4.31-7.09,5.44-2.88,1.13-6.08,1.47-9.6,1.01Zm.65-5.07c3.71.48,6.83-.32,9.35-2.39s4.03-5.11,4.55-9.11l.08-.64c.51-4-.18-7.32-2.09-9.96s-4.72-4.2-8.44-4.68c-3.67-.47-6.77.33-9.31,2.4s-4.07,5.1-4.58,9.1l-.08.64c-.51,4,.19,7.32,2.13,9.97s4.73,4.2,8.4,4.67Z"/>
    <path class="cls-2" d="m489.35,69.94c-1.36-.29-2.41-.98-3.13-2.07-.73-1.09-.94-2.33-.64-3.74.3-1.41,1-2.46,2.11-3.16,1.1-.7,2.34-.9,3.7-.61,1.41.3,2.46.99,3.17,2.07.7,1.08.9,2.33.6,3.74-.3,1.41-.99,2.46-2.07,3.17-1.08.7-2.33.9-3.74.6Zm.2-14.75l7.69-36.13,5.7,1.22-7.69,36.13-5.7-1.21Z"/>
  </g>
</svg>