<?xml version="1.0" encoding="UTF-8"?>
<svg id="Ebene_1" data-name="Ebene 1" xmlns="http://www.w3.org/2000/svg" viewBox="0 0 830.88 830.88">
  <defs>
    <style>
      .cls-1 {
        fill: #264e9d;
      }

      .cls-2 {
        fill: #010101;
      }
    </style>
  </defs>
  <g>
    <path class="cls-1" d="m61.93,386.09l-35.83,2.35.76-5.71,31.89-1.64.13-1-30.1-11.78,1.24-9.35,32.13-3.5.13-1-30.35-9.92.76-5.71,33.97,11.64-1.28,9.64-32.14,3.57-.12.93,30.09,11.85-1.28,9.64Z"/>
    <path class="cls-1" d="m74.96,321.02c-.94,3.43-2.49,6.23-4.66,8.43-2.17,2.19-4.77,3.65-7.8,4.36-3.03.71-6.28.59-9.76-.36l-.83-.23c-3.52-.96-6.4-2.53-8.64-4.69-2.25-2.16-3.75-4.71-4.51-7.66-.76-2.95-.69-6.06.21-9.35.88-3.19,2.33-5.83,4.37-7.91,2.04-2.08,4.52-3.46,7.45-4.15,2.93-.69,6.1-.57,9.53.37l2.5.69-7.6,27.7c3.7.86,6.88.47,9.55-1.19,2.67-1.66,4.46-4.15,5.38-7.48.8-2.92.75-5.35-.17-7.29-.91-1.94-2.18-3.58-3.8-4.92l3.59-4.09c1.25,1.09,2.42,2.44,3.51,4.06,1.1,1.62,1.86,3.55,2.3,5.78.43,2.23.23,4.88-.61,7.93Zm-24.24,5.9l6.06-22.08c-3.2-.68-5.95-.27-8.25,1.21-2.3,1.49-3.87,3.75-4.71,6.81-.85,3.1-.67,5.89.54,8.36,1.21,2.47,3.33,4.37,6.35,5.7Z"/>
    <path class="cls-1" d="m81.66,296.44l-47.33-17.31,1.95-5.34,47.33,17.31-1.95,5.34Z"/>
    <path class="cls-1" d="m95.03,266.52c-1.43,3.09-3.38,5.56-5.85,7.41-2.47,1.85-5.27,2.9-8.41,3.17-3.14.27-6.41-.39-9.8-1.96l-.72-.33c-3.44-1.59-6.06-3.67-7.87-6.22-1.8-2.55-2.8-5.37-2.99-8.45-.19-3.08.43-6.16,1.87-9.25,1.41-3.05,3.18-5.39,5.32-7.02,2.13-1.63,4.42-2.63,6.87-3.01,2.45-.37,4.82-.24,7.12.4l-1.29,5.51c-1.67-.51-3.34-.66-5.02-.46-1.68.2-3.25.84-4.69,1.91-1.45,1.07-2.66,2.66-3.63,4.75-.99,2.13-1.39,4.26-1.21,6.38.18,2.12.94,4.08,2.27,5.89,1.33,1.81,3.24,3.29,5.72,4.44l.59.27c2.48,1.15,4.84,1.65,7.08,1.5,2.24-.15,4.23-.84,5.96-2.08,1.74-1.23,3.1-2.92,4.09-5.05,1.47-3.18,1.77-5.99.89-8.43-.88-2.44-2.45-4.43-4.7-5.95l3.47-4.58c1.87,1.45,3.45,3.24,4.73,5.37,1.29,2.13,2,4.54,2.13,7.22.13,2.68-.51,5.55-1.92,8.59Z"/>
    <path class="cls-1" d="m114.75,229.97c-1.87,3.02-4.15,5.29-6.84,6.82-2.69,1.53-5.59,2.22-8.69,2.08-3.1-.14-6.22-1.18-9.37-3.12l-.8-.49c-3.1-1.92-5.42-4.24-6.95-6.96s-2.22-5.63-2.06-8.72c.16-3.09,1.17-6.14,3.04-9.17,1.87-3.02,4.15-5.29,6.84-6.82,2.69-1.52,5.6-2.21,8.72-2.06s6.24,1.19,9.34,3.11l.8.49c3.14,1.94,5.47,4.27,6.98,6.98,1.51,2.71,2.19,5.61,2.03,8.7-.16,3.09-1.17,6.15-3.04,9.17Zm-4.35-2.69c1.97-3.18,2.53-6.35,1.68-9.5-.85-3.15-2.99-5.78-6.42-7.9l-.55-.34c-3.43-2.12-6.74-2.85-9.94-2.21-3.19.65-5.78,2.57-7.74,5.75-1.94,3.14-2.5,6.3-1.66,9.47.83,3.17,2.97,5.81,6.4,7.93l.55.34c3.43,2.12,6.75,2.85,9.96,2.18,3.21-.67,5.78-2.58,7.73-5.72Z"/>
    <path class="cls-1" d="m127.93,206.94l-26.97-22.64,3.56-4.25,3.36,2.82.65-.77c-.52-1.32-.7-2.9-.52-4.76.18-1.85,1.16-3.85,2.95-5.98,1.76-2.1,3.65-3.41,5.66-3.94,2.01-.53,3.93-.54,5.75-.02l.65-.77c-.8-1.74-1.12-3.62-.98-5.66.15-2.04,1.17-4.2,3.09-6.48,1.51-1.8,3.21-3.07,5.08-3.82,1.88-.74,3.84-.93,5.88-.56,2.04.37,4.02,1.35,5.93,2.96l18.25,15.32-3.66,4.36-17.87-15c-1.8-1.51-3.67-2.18-5.59-2.02-1.93.17-3.68,1.19-5.25,3.06-1.67,1.99-2.39,4.15-2.17,6.5.22,2.35,1.55,4.54,3.97,6.58l16.21,13.61-3.66,4.36-17.87-15c-1.8-1.51-3.67-2.18-5.59-2.02s-3.68,1.19-5.25,3.06c-1.67,1.99-2.39,4.15-2.17,6.5.22,2.35,1.55,4.54,3.97,6.58l16.21,13.61-3.66,4.36Z"/>
    <path class="cls-1" d="m180.39,151.75c-2.65,2.37-5.47,3.89-8.48,4.56-3.01.67-5.98.48-8.92-.57-2.93-1.04-5.6-2.91-8-5.59l-.58-.64c-2.43-2.72-4.01-5.59-4.73-8.62-.72-3.03-.6-5.99.36-8.88.96-2.89,2.7-5.47,5.24-7.74,2.47-2.21,5.12-3.64,7.96-4.28,2.84-.64,5.68-.46,8.51.54,2.83,1.01,5.44,2.83,7.81,5.48l1.73,1.93-21.4,19.17c2.64,2.73,5.53,4.12,8.67,4.17,3.14.05,6-1.07,8.57-3.38,2.25-2.02,3.52-4.09,3.81-6.22.29-2.12.11-4.19-.53-6.2l5.23-1.5c.46,1.59.71,3.36.75,5.32.05,1.96-.36,3.99-1.2,6.1-.85,2.11-2.45,4.23-4.81,6.34Zm-23.57-8.18l17.05-15.28c-2.32-2.3-4.85-3.45-7.59-3.45-2.74,0-5.28,1.06-7.64,3.18-2.4,2.15-3.75,4.59-4.07,7.32-.32,2.74.43,5.48,2.25,8.23Z"/>
  </g>
  <g>
    <path class="cls-2" d="m528.05,78.98l6.29-35.35,5.36,2.1-6.04,31.35.94.37,18.64-26.41,8.78,3.44-4.29,32.04.94.37,16.89-27.09,5.36,2.1-19.43,30.2-9.05-3.55,4.23-32.06-.87-.34-18.7,26.38-9.05-3.55Z"/>
    <path class="cls-2" d="m588.13,107.22c-3.1-1.73-5.46-3.91-7.07-6.54-1.61-2.63-2.4-5.5-2.36-8.62.04-3.11.93-6.24,2.69-9.39l.42-.75c1.78-3.18,3.98-5.61,6.62-7.27,2.63-1.66,5.47-2.51,8.51-2.54s6.05.78,9.03,2.44c2.89,1.62,5.1,3.66,6.63,6.14,1.53,2.48,2.28,5.22,2.25,8.23-.03,3.01-.91,6.06-2.64,9.16l-1.26,2.26-25.08-14.01c-1.72,3.38-2.1,6.57-1.13,9.55.97,2.99,2.96,5.32,5.98,7.01,2.64,1.47,5.01,2,7.12,1.58,2.1-.42,4-1.26,5.69-2.51l3.12,4.46c-1.35.95-2.95,1.76-4.79,2.44-1.84.68-3.89.96-6.16.85-2.27-.12-4.79-.94-7.56-2.49Zm.08-24.94l19.99,11.16c1.42-2.94,1.69-5.71.8-8.3-.89-2.59-2.72-4.65-5.49-6.2-2.81-1.57-5.56-2.06-8.25-1.47-2.69.59-5.04,2.19-7.05,4.8Z"/>
    <path class="cls-2" d="m610.37,119.58l28.1-41.84,4.72,3.17-28.1,41.84-4.72-3.17Z"/>
    <path class="cls-2" d="m636.27,139.72c-2.66-2.13-4.6-4.61-5.8-7.45-1.21-2.84-1.56-5.81-1.07-8.92.49-3.11,1.9-6.13,4.24-9.05l.5-.62c2.37-2.96,5-5.02,7.92-6.16,2.91-1.15,5.88-1.44,8.92-.89,3.03.55,5.88,1.89,8.54,4.01,2.62,2.1,4.48,4.38,5.55,6.83,1.08,2.46,1.51,4.92,1.29,7.39-.22,2.47-.91,4.74-2.08,6.82l-5.05-2.56c.89-1.5,1.44-3.09,1.64-4.77.2-1.68-.04-3.35-.74-5.01-.7-1.66-1.95-3.21-3.75-4.65-1.84-1.47-3.81-2.37-5.91-2.69-2.1-.33-4.19-.06-6.26.8-2.07.86-3.96,2.36-5.67,4.5l-.4.51c-1.71,2.14-2.75,4.31-3.14,6.52-.38,2.21-.19,4.31.6,6.29.78,1.98,2.1,3.7,3.93,5.17,2.74,2.19,5.4,3.15,7.98,2.87,2.58-.27,4.88-1.32,6.9-3.15l3.62,4.46c-1.85,1.47-3.96,2.58-6.34,3.32-2.38.74-4.88.86-7.52.35s-5.27-1.81-7.89-3.91Z"/>
    <path class="cls-2" d="m667.09,167.54c-2.49-2.53-4.16-5.28-5-8.26s-.83-5.95.04-8.93c.87-2.98,2.62-5.77,5.26-8.36l.67-.66c2.6-2.56,5.4-4.26,8.41-5.1,3.01-.84,6-.82,8.96.07,2.96.89,5.69,2.6,8.18,5.13,2.49,2.53,4.16,5.28,5,8.26.84,2.98.82,5.96-.07,8.96-.89,3-2.63,5.78-5.23,8.34l-.67.66c-2.63,2.59-5.45,4.3-8.44,5.13s-5.97.8-8.93-.09c-2.96-.89-5.69-2.6-8.18-5.13Zm3.64-3.59c2.63,2.67,5.57,3.96,8.83,3.88,3.26-.08,6.33-1.53,9.2-4.36l.46-.45c2.87-2.83,4.37-5.87,4.5-9.13s-1.12-6.22-3.75-8.89c-2.59-2.63-5.53-3.92-8.8-3.86-3.28.06-6.35,1.51-9.22,4.34l-.46.46c-2.87,2.83-4.36,5.88-4.47,9.16-.11,3.27,1.13,6.23,3.73,8.86Z"/>
    <path class="cls-2" d="m686.37,185.84l28.38-20.84,3.28,4.47-3.54,2.6.6.81c1.4-.2,2.99.01,4.75.62,1.76.61,3.46,2.04,5.11,4.29,1.62,2.21,2.45,4.35,2.49,6.43.04,2.08-.41,3.95-1.34,5.59l.6.81c1.88-.37,3.79-.23,5.73.39,1.95.62,3.8,2.14,5.56,4.53,1.39,1.9,2.23,3.84,2.5,5.84.28,2,0,3.95-.84,5.85-.84,1.9-2.27,3.58-4.28,5.06l-19.21,14.11-3.37-4.58,18.8-13.81c1.89-1.39,2.99-3.04,3.28-4.96.29-1.91-.29-3.85-1.73-5.83-1.53-2.09-3.47-3.3-5.8-3.64-2.33-.34-4.78.43-7.33,2.3l-17.06,12.53-3.37-4.58,18.8-13.81c1.9-1.39,2.99-3.04,3.28-4.96.29-1.91-.29-3.85-1.73-5.83-1.53-2.09-3.47-3.3-5.8-3.64-2.33-.34-4.78.43-7.33,2.3l-17.06,12.53-3.37-4.58Z"/>
    <path class="cls-2" d="m727.55,249.85c-1.67-3.13-2.48-6.24-2.41-9.32.07-3.08.96-5.93,2.67-8.53,1.71-2.6,4.16-4.75,7.33-6.45l.76-.41c3.22-1.72,6.38-2.57,9.5-2.55,3.11.02,5.96.84,8.54,2.46,2.58,1.61,4.67,3.93,6.28,6.93,1.56,2.92,2.32,5.84,2.27,8.75-.05,2.91-.9,5.62-2.55,8.14-1.65,2.51-4.04,4.61-7.17,6.28l-2.29,1.22-13.54-25.34c-3.28,1.92-5.31,4.39-6.11,7.43-.8,3.04-.38,6.08,1.25,9.13,1.43,2.67,3.14,4.39,5.13,5.17s4.05,1.1,6.15.96l.21,5.44c-1.65.07-3.43-.11-5.35-.53-1.91-.42-3.79-1.29-5.64-2.62-1.85-1.32-3.52-3.38-5.02-6.18Zm13.54-20.95l10.79,20.19c2.79-1.71,4.5-3.89,5.15-6.55.65-2.66.22-5.39-1.27-8.18-1.52-2.84-3.57-4.74-6.15-5.69-2.58-.96-5.43-.88-8.53.23Z"/>
    <path class="cls-2" d="m748.31,292.63l31.51-17.23,1.72,5.5-28.23,14.92.3.96,32.26-2,2.81,9-27.67,16.71.3.96,31.7-3.79,1.72,5.5-35.71,3.75-2.9-9.28,27.65-16.77-.28-.89-32.28,1.93-2.9-9.28Z"/>
    <path class="cls-2" d="m763.9,357.16c-.59-3.5-.36-6.71.68-9.61,1.04-2.9,2.79-5.31,5.24-7.23,2.45-1.92,5.45-3.18,9-3.78l.85-.14c3.6-.61,6.87-.4,9.81.61,2.94,1.01,5.38,2.7,7.31,5.05,1.93,2.35,3.18,5.21,3.74,8.57.55,3.27.34,6.27-.64,9.02-.97,2.74-2.64,5.04-5.01,6.9-2.37,1.86-5.3,3.08-8.8,3.67l-2.56.43-4.77-28.33c-3.72.77-6.44,2.47-8.16,5.1-1.72,2.63-2.3,5.64-1.73,9.05.5,2.98,1.57,5.16,3.22,6.54,1.64,1.38,3.48,2.33,5.52,2.87l-1.53,5.22c-1.59-.46-3.22-1.2-4.9-2.21-1.68-1.01-3.18-2.43-4.52-4.28-1.33-1.85-2.26-4.33-2.79-7.45Zm19.51-15.55l3.8,22.58c3.19-.73,5.51-2.25,6.97-4.57,1.46-2.32,1.93-5.03,1.4-8.16-.53-3.17-1.87-5.62-4.01-7.36-2.14-1.73-4.86-2.57-8.16-2.5Z"/>
    <path class="cls-2" d="m768.17,382.26l50.22-4.26.48,5.67-50.22,4.26-.48-5.67Z"/>
    <path class="cls-2" d="m768.69,414.92c-.05-3.41.63-6.48,2.05-9.21,1.42-2.74,3.49-4.91,6.2-6.51,2.71-1.6,5.94-2.44,9.68-2.5h.79c3.79-.07,7.06.65,9.79,2.17,2.74,1.52,4.86,3.62,6.37,6.31,1.51,2.69,2.29,5.73,2.34,9.14.05,3.36-.52,6.24-1.73,8.63-1.21,2.4-2.84,4.29-4.88,5.7-2.04,1.4-4.24,2.31-6.58,2.73l-1.24-5.52c1.72-.27,3.3-.86,4.72-1.77,1.42-.91,2.56-2.17,3.4-3.76.84-1.6,1.24-3.55,1.2-5.85-.04-2.35-.6-4.44-1.69-6.27-1.09-1.83-2.62-3.27-4.61-4.32-1.99-1.05-4.35-1.55-7.08-1.51h-.65c-2.74.05-5.08.63-7.03,1.74-1.95,1.11-3.44,2.6-4.46,4.46-1.03,1.86-1.52,3.97-1.48,6.33.06,3.5,1.01,6.16,2.87,7.98,1.85,1.82,4.13,2.92,6.82,3.31l-1.13,5.63c-2.31-.49-4.51-1.42-6.6-2.77-2.09-1.36-3.77-3.22-5.06-5.57-1.29-2.36-1.96-5.21-2.01-8.57Z"/>
    <path class="cls-2" d="m766.32,456.56c.41-3.53,1.51-6.55,3.3-9.08,1.79-2.52,4.12-4.38,6.99-5.57,2.87-1.19,6.14-1.57,9.81-1.15l.93.11c3.62.42,6.71,1.54,9.25,3.36s4.4,4.16,5.56,7.02c1.17,2.86,1.54,6.06,1.13,9.59-.41,3.53-1.51,6.55-3.3,9.08-1.79,2.52-4.13,4.38-7.02,5.56-2.89,1.19-6.15,1.57-9.77,1.15l-.93-.11c-3.67-.43-6.77-1.55-9.29-3.36-2.52-1.81-4.36-4.15-5.53-7.02-1.17-2.87-1.54-6.06-1.14-9.59Zm5.08.59c-.43,3.72.41,6.82,2.51,9.31,2.1,2.49,5.16,3.97,9.16,4.43l.64.07c4,.46,7.32-.28,9.93-2.22,2.62-1.94,4.14-4.77,4.57-8.49.43-3.67-.41-6.76-2.51-9.28-2.1-2.52-5.15-4-9.16-4.47l-.64-.07c-4-.46-7.32.29-9.94,2.25-2.62,1.97-4.14,4.79-4.57,8.46Z"/>
    <path class="cls-2" d="m764.16,483.02l34.01,9.09-1.43,5.36-4.24-1.13-.26.97c1.03.97,1.86,2.33,2.48,4.09.62,1.76.58,3.98-.14,6.67-.71,2.64-1.86,4.63-3.46,5.97-1.6,1.34-3.33,2.15-5.2,2.45l-.26.97c1.46,1.23,2.55,2.81,3.29,4.72.73,1.91.71,4.3-.06,7.18-.61,2.27-1.6,4.14-2.99,5.61-1.39,1.47-3.08,2.47-5.09,3-2,.53-4.21.48-6.62-.17l-23.02-6.15,1.47-5.5,22.54,6.02c2.27.61,4.25.43,5.92-.54,1.67-.97,2.83-2.63,3.46-5,.67-2.5.41-4.77-.79-6.81-1.2-2.03-3.32-3.46-6.38-4.28l-20.45-5.47,1.47-5.5,22.54,6.02c2.27.61,4.25.43,5.92-.54s2.83-2.63,3.46-5c.67-2.5.41-4.77-.79-6.81-1.2-2.03-3.32-3.46-6.38-4.28l-20.45-5.47,1.47-5.5Z"/>
    <path class="cls-2" d="m739.97,555.18c1.4-3.27,3.32-5.84,5.77-7.71,2.45-1.88,5.22-2.96,8.32-3.25,3.1-.29,6.31.27,9.62,1.69l.79.34c3.35,1.44,5.99,3.38,7.92,5.82,1.93,2.44,3.07,5.18,3.42,8.2.35,3.02-.15,6.1-1.49,9.23-1.3,3.04-3.11,5.46-5.41,7.24-2.3,1.78-4.95,2.81-7.95,3.1-2.99.28-6.12-.27-9.39-1.67l-2.38-1.02,11.32-26.41c-3.54-1.36-6.75-1.4-9.62-.13-2.87,1.28-4.99,3.5-6.35,6.68-1.19,2.78-1.47,5.19-.83,7.24.64,2.05,1.67,3.85,3.09,5.4l-4.11,3.56c-1.08-1.25-2.06-2.75-2.93-4.5-.87-1.76-1.36-3.77-1.48-6.04-.12-2.27.44-4.86,1.69-7.78Zm24.82-2.53l-9.02,21.05c3.08,1.11,5.85,1.08,8.33-.07,2.48-1.16,4.34-3.19,5.59-6.1,1.27-2.96,1.47-5.74.6-8.36-.86-2.62-2.7-4.79-5.51-6.51Z"/>
    <path class="cls-2" d="m719.54,598.13l33.15,13.81-3.22,4.78-29.3-12.69-.56.84,21.74,23.92-5.27,7.82-30.34-11.14-.56.84,22.78,22.37-3.22,4.78-25.26-25.52,5.43-8.06,30.38,11.08.52-.78-21.7-23.98,5.43-8.06Z"/>
    <path class="cls-2" d="m678.96,650.69c2.36-2.65,5-4.48,7.92-5.49,2.92-1,5.89-1.15,8.92-.45,3.03.71,5.9,2.26,8.58,4.65l.65.57c2.73,2.42,4.62,5.1,5.67,8.03,1.06,2.93,1.27,5.88.65,8.86-.62,2.98-2.07,5.74-4.33,8.29-2.2,2.47-4.68,4.19-7.42,5.15-2.75.96-5.59,1.1-8.52.42-2.93-.68-5.72-2.2-8.38-4.56l-1.94-1.72,19.09-21.47c-2.93-2.41-5.96-3.47-9.08-3.17-3.13.3-5.84,1.74-8.14,4.33-2.01,2.26-3.04,4.46-3.08,6.61-.04,2.14.36,4.18,1.22,6.1l-5.03,2.08c-.63-1.53-1.08-3.26-1.35-5.2-.27-1.94-.1-4.01.5-6.2.6-2.2,1.96-4.47,4.06-6.84Zm24.34,5.46l-15.21,17.11c2.57,2.03,5.21,2.88,7.93,2.57,2.72-.31,5.13-1.65,7.24-4.02,2.14-2.4,3.21-4.98,3.22-7.74,0-2.75-1.05-5.4-3.17-7.92Z"/>
    <path class="cls-2" d="m662.08,669.75l34.8,36.46-4.11,3.93-34.8-36.46,4.11-3.93Z"/>
    <path class="cls-2" d="m636.83,690.71c2.65-2.14,5.49-3.5,8.52-4.06,3.03-.57,6.01-.28,8.94.87,2.93,1.15,5.58,3.18,7.93,6.09l.5.62c2.38,2.95,3.82,5.97,4.31,9.06.49,3.09.14,6.06-1.05,8.9-1.19,2.84-3.11,5.34-5.76,7.48-2.61,2.11-5.24,3.43-7.87,3.95-2.63.52-5.13.41-7.49-.33-2.36-.75-4.43-1.91-6.21-3.5l3.59-4.38c1.27,1.19,2.71,2.07,4.3,2.63,1.6.56,3.28.68,5.06.36,1.77-.32,3.56-1.21,5.35-2.66,1.83-1.48,3.13-3.21,3.9-5.19.77-1.98.96-4.08.56-6.29-.4-2.21-1.46-4.38-3.18-6.51l-.41-.5c-1.72-2.13-3.62-3.62-5.7-4.47-2.08-.85-4.17-1.11-6.27-.77-2.1.34-4.07,1.25-5.9,2.73-2.72,2.2-4.23,4.59-4.52,7.17-.29,2.58.24,5.05,1.59,7.41l-5.14,2.58c-1.04-2.12-1.66-4.43-1.88-6.91-.21-2.48.21-4.95,1.27-7.42s2.9-4.75,5.51-6.87Z"/>
    <path class="cls-2" d="m603.02,714.82c3.01-1.89,6.06-2.92,9.14-3.11,3.09-.18,5.99.47,8.72,1.97,2.72,1.49,5.07,3.8,7.03,6.93l.5.79c1.94,3.09,3,6.2,3.17,9.32.17,3.12-.49,6.03-2,8.74-1.5,2.7-3.76,5-6.77,6.89-3.01,1.89-6.06,2.92-9.14,3.11-3.09.18-6-.48-8.73-2-2.74-1.51-5.07-3.81-7.01-6.9l-.5-.79c-1.97-3.13-3.03-6.25-3.19-9.35-.16-3.1.51-6,2.02-8.7,1.51-2.7,3.76-5,6.77-6.89Zm2.72,4.33c-3.17,1.99-5.07,4.59-5.7,7.79s.13,6.51,2.28,9.92l.34.55c2.14,3.41,4.79,5.53,7.95,6.36,3.15.83,6.32.24,9.49-1.75,3.13-1.97,5.02-4.55,5.67-7.77.65-3.21-.1-6.53-2.25-9.94l-.34-.55c-2.14-3.42-4.8-5.53-7.98-6.34-3.17-.81-6.33-.24-9.46,1.73Z"/>
    <path class="cls-2" d="m581.02,729.7l14.2,32.22-5.07,2.24-1.77-4.02-.92.41c-.11,1.41-.66,2.91-1.64,4.5-.98,1.58-2.74,2.94-5.29,4.06-2.5,1.1-4.78,1.45-6.82,1.04-2.04-.41-3.76-1.25-5.16-2.52l-.92.41c-.05,1.91-.59,3.75-1.62,5.51s-2.91,3.25-5.63,4.45c-2.15.95-4.23,1.34-6.25,1.18-2.01-.16-3.85-.86-5.52-2.09-1.67-1.23-3.01-2.99-4.02-5.27l-9.61-21.81,5.21-2.29,9.41,21.35c.95,2.15,2.32,3.58,4.13,4.28s3.83.56,6.07-.43c2.37-1.04,3.98-2.67,4.81-4.88s.62-4.76-.66-7.66l-8.54-19.37,5.21-2.29,9.41,21.35c.95,2.15,2.32,3.58,4.13,4.28s3.83.56,6.07-.43c2.37-1.04,3.98-2.67,4.81-4.88.84-2.21.62-4.76-.66-7.66l-8.54-19.37,5.21-2.29Z"/>
    <path class="cls-2" d="m509.61,755.99c3.42-.95,6.63-1.06,9.62-.33,3,.74,5.58,2.22,7.74,4.46,2.17,2.24,3.73,5.09,4.7,8.56l.23.83c.98,3.51,1.12,6.79.42,9.82-.7,3.03-2.12,5.63-4.26,7.8s-4.85,3.7-8.13,4.62c-3.19.89-6.2.99-9.03.31-2.83-.68-5.29-2.1-7.39-4.26-2.1-2.16-3.62-4.95-4.57-8.37l-.69-2.5,27.68-7.7c-1.16-3.62-3.13-6.14-5.92-7.58-2.79-1.44-5.85-1.7-9.18-.77-2.91.81-4.97,2.1-6.17,3.88-1.2,1.78-1.96,3.71-2.27,5.79l-5.35-.98c.29-1.63.86-3.33,1.68-5.1.83-1.77,2.09-3.42,3.78-4.94,1.7-1.52,4.07-2.7,7.12-3.55Zm17.5,17.77l-22.06,6.14c1.06,3.09,2.82,5.24,5.27,6.46,2.46,1.21,5.21,1.39,8.26.54,3.1-.86,5.4-2.45,6.9-4.76,1.5-2.31,2.04-5.1,1.63-8.38Z"/>
    <path class="cls-2" d="m463.32,766.94l9.97,34.5-5.74.48-8.43-30.8-1,.08-5.06,31.93-9.4.79-10.3-30.64-1,.08-3.19,31.77-5.74.48,4.09-35.67,9.69-.81,10.37,30.63.93-.08,5.13-31.93,9.69-.81Z"/>
    <path class="cls-2" d="m396.91,768.21c3.55.18,6.63,1.08,9.24,2.73,2.61,1.64,4.59,3.87,5.94,6.67,1.35,2.81,1.94,6.01,1.76,9.6l-.04.86c-.18,3.64-1.08,6.79-2.7,9.45-1.62,2.66-3.79,4.68-6.5,6.06-2.71,1.38-5.77,1.99-9.17,1.82-3.31-.16-6.2-1.02-8.67-2.55-2.47-1.54-4.36-3.67-5.67-6.37-1.31-2.71-1.87-5.84-1.7-9.38l.13-2.59,28.69,1.42c.04-3.79-1.03-6.82-3.23-9.06-2.2-2.25-5.02-3.46-8.47-3.63-3.02-.15-5.38.43-7.08,1.74-1.7,1.31-3.03,2.9-3.98,4.78l-4.77-2.61c.79-1.45,1.86-2.89,3.21-4.31,1.34-1.42,3.06-2.59,5.15-3.49,2.09-.91,4.71-1.28,7.88-1.12Zm11,22.39l-22.87-1.13c.03,3.27,1.02,5.87,2.97,7.79,1.95,1.92,4.5,2.96,7.67,3.12,3.21.16,5.89-.62,8.04-2.34,2.15-1.72,3.55-4.2,4.19-7.43Z"/>
    <path class="cls-2" d="m371.48,767l-6.59,49.97-5.64-.74,6.59-49.97,5.64.74Z"/>
    <path class="cls-2" d="m339.35,760.47c3.33.72,6.17,2.09,8.5,4.1,2.34,2.01,3.98,4.51,4.92,7.52s1.02,6.34.22,10l-.17.77c-.81,3.7-2.26,6.72-4.36,9.04-2.1,2.32-4.63,3.9-7.59,4.76-2.96.85-6.11.92-9.44.19-3.28-.71-5.95-1.93-8.01-3.66-2.06-1.73-3.53-3.74-4.43-6.05-.9-2.31-1.28-4.65-1.16-7.03l5.66.05c-.13,1.74.08,3.41.64,5s1.52,2.98,2.89,4.17c1.36,1.18,3.17,2.02,5.42,2.51,2.3.5,4.46.43,6.49-.21,2.03-.64,3.78-1.81,5.26-3.5,1.47-1.69,2.5-3.88,3.08-6.55l.14-.63c.58-2.67.55-5.09-.08-7.24-.64-2.15-1.75-3.94-3.33-5.37-1.58-1.42-3.52-2.39-5.82-2.89-3.42-.75-6.23-.42-8.43.97-2.19,1.39-3.79,3.35-4.78,5.89l-5.23-2.39c1.01-2.14,2.41-4.07,4.21-5.79,1.8-1.72,3.99-2.94,6.58-3.65s5.52-.71,8.81,0Z"/>
    <path class="cls-2" d="m299.39,749.18c3.36,1.17,6.07,2.9,8.14,5.19,2.07,2.3,3.38,4.97,3.92,8.03.54,3.06.2,6.33-1.01,9.82l-.31.88c-1.2,3.45-2.96,6.21-5.29,8.3-2.33,2.09-5.01,3.39-8.07,3.9-3.05.51-6.25.19-9.61-.98-3.35-1.17-6.07-2.9-8.14-5.19-2.07-2.3-3.38-4.99-3.9-8.07-.53-3.08-.2-6.34,1-9.79l.31-.88c1.21-3.49,2.98-6.27,5.3-8.33,2.32-2.07,5-3.36,8.05-3.87,3.05-.51,6.25-.19,9.61.98Zm-1.68,4.83c-3.54-1.23-6.75-1.09-9.64.42-2.89,1.51-5,4.17-6.32,7.98l-.21.61c-1.32,3.81-1.32,7.2,0,10.18,1.33,2.98,3.76,5.08,7.3,6.31,3.49,1.21,6.69,1.07,9.6-.43s5.03-4.16,6.35-7.97l.21-.61c1.32-3.81,1.31-7.21-.04-10.19-1.35-2.98-3.77-5.08-7.26-6.3Z"/>
    <path class="cls-2" d="m274.03,741.3l-16.28,31.22-4.92-2.56,2.03-3.89-.89-.47c-1.17.8-2.68,1.31-4.54,1.53-1.85.23-4.01-.3-6.48-1.59-2.43-1.26-4.12-2.82-5.07-4.67-.96-1.85-1.38-3.72-1.26-5.61l-.89-.47c-1.52,1.16-3.29,1.88-5.32,2.18-2.02.3-4.35-.24-6.99-1.62-2.08-1.09-3.69-2.47-4.82-4.14-1.13-1.67-1.74-3.54-1.82-5.62s.45-4.22,1.61-6.43l11.02-21.13,5.04,2.63-10.79,20.68c-1.09,2.08-1.34,4.05-.76,5.9.58,1.85,1.96,3.33,4.13,4.47,2.3,1.2,4.57,1.44,6.82.71,2.25-.72,4.1-2.49,5.56-5.3l9.79-18.77,5.04,2.63-10.79,20.68c-1.09,2.08-1.34,4.05-.76,5.9.58,1.85,1.96,3.33,4.13,4.47,2.3,1.2,4.57,1.44,6.82.71,2.25-.72,4.1-2.49,5.56-5.3l9.79-18.77,5.04,2.63Z"/>
    <path class="cls-2" d="m208.85,702.01c2.88,2.07,4.98,4.51,6.28,7.3,1.3,2.8,1.76,5.74,1.37,8.83-.39,3.09-1.63,6.1-3.74,9.02l-.5.7c-2.13,2.96-4.6,5.12-7.4,6.47-2.8,1.35-5.72,1.87-8.75,1.56-3.03-.31-5.92-1.46-8.69-3.45-2.69-1.93-4.65-4.22-5.89-6.85-1.24-2.63-1.67-5.44-1.3-8.43.37-2.98,1.59-5.92,3.67-8.8l1.51-2.11,23.33,16.77c2.1-3.16,2.83-6.29,2.21-9.36-.62-3.08-2.34-5.63-5.15-7.64-2.46-1.77-4.75-2.56-6.89-2.38-2.14.18-4.12.79-5.94,1.85l-2.59-4.79c1.45-.79,3.13-1.42,5.03-1.88,1.9-.47,3.98-.51,6.22-.14,2.25.37,4.65,1.48,7.23,3.33Zm-2.91,24.77l-18.59-13.36c-1.75,2.76-2.33,5.48-1.74,8.15.59,2.67,2.17,4.93,4.75,6.78,2.61,1.88,5.29,2.68,8.03,2.4,2.74-.28,5.26-1.6,7.55-3.97Z"/>
    <path class="cls-2" d="m171.31,672.76l-20.62,29.39-3.97-4.17,18.71-25.88-.7-.73-28.04,16.08-6.51-6.83,17.41-27.23-.7-.73-26.75,17.43-3.97-4.17,30.36-19.18,6.7,7.04-17.36,27.28.65.68,28.09-16.02,6.71,7.04Z"/>
    <path class="cls-2" d="m128.72,621.82c2.08,2.88,3.3,5.85,3.66,8.91.35,3.06-.14,6-1.49,8.81-1.34,2.81-3.47,5.27-6.39,7.38l-.7.51c-2.95,2.14-5.97,3.41-9.06,3.81-3.09.4-6.02-.02-8.79-1.28-2.77-1.25-5.16-3.26-7.16-6.02-1.94-2.68-3.09-5.47-3.43-8.36-.35-2.89.13-5.69,1.42-8.41,1.29-2.72,3.38-5.12,6.25-7.2l2.1-1.52,16.85,23.26c2.99-2.34,4.67-5.07,5.05-8.19.38-3.12-.45-6.08-2.47-8.88-1.77-2.45-3.7-3.93-5.79-4.43-2.08-.5-4.16-.54-6.22-.12l-.95-5.36c1.63-.29,3.42-.36,5.37-.2,1.95.16,3.93.77,5.95,1.83,2.01,1.06,3.95,2.87,5.81,5.44Zm-10.57,22.59l-13.43-18.54c-2.53,2.07-3.93,4.47-4.22,7.19-.28,2.72.51,5.37,2.37,7.93,1.89,2.6,4.17,4.21,6.86,4.81,2.69.6,5.5.14,8.42-1.39Z"/>
    <path class="cls-2" d="m113.74,601.22l-43.1,26.12-2.95-4.86,43.1-26.12,2.95,4.86Z"/>
    <path class="cls-2" d="m98.73,572.06c1.52,3.05,2.23,6.12,2.12,9.2-.1,3.08-1.03,5.93-2.79,8.54-1.75,2.62-4.31,4.76-7.66,6.43l-.71.35c-3.39,1.69-6.65,2.44-9.78,2.25-3.12-.19-5.94-1.17-8.46-2.95-2.52-1.77-4.54-4.19-6.06-7.24-1.5-3.01-2.22-5.85-2.16-8.54.06-2.68.71-5.1,1.95-7.24,1.24-2.14,2.83-3.91,4.76-5.3l3.5,4.45c-1.44.99-2.61,2.2-3.5,3.63-.89,1.44-1.37,3.06-1.44,4.86-.07,1.8.41,3.74,1.44,5.8,1.05,2.11,2.46,3.75,4.22,4.93,1.77,1.18,3.78,1.82,6.02,1.91,2.24.09,4.59-.47,7.04-1.69l.58-.29c2.45-1.22,4.31-2.75,5.59-4.59,1.28-1.84,1.98-3.83,2.1-5.95.12-2.12-.34-4.24-1.39-6.35-1.56-3.14-3.57-5.13-6.03-5.97-2.46-.84-4.98-.86-7.58-.05l-1.41-5.57c2.3-.55,4.68-.67,7.15-.34,2.47.33,4.79,1.27,6.97,2.85s4.01,3.86,5.51,6.87Z"/>
    <path class="cls-2" d="m82.53,533.85c1.19,3.35,1.54,6.55,1.05,9.6-.49,3.05-1.76,5.75-3.81,8.08-2.05,2.33-4.81,4.12-8.3,5.36l-.88.31c-3.44,1.22-6.7,1.58-9.78,1.07-3.08-.51-5.78-1.79-8.09-3.85-2.31-2.06-4.06-4.76-5.25-8.1-1.19-3.35-1.54-6.55-1.05-9.6.49-3.05,1.78-5.75,3.85-8.09s4.83-4.12,8.26-5.35l.88-.31c3.48-1.24,6.76-1.6,9.82-1.08,3.06.52,5.75,1.8,8.06,3.86,2.31,2.06,4.06,4.76,5.25,8.1Zm-4.82,1.71c-1.25-3.53-3.38-5.94-6.36-7.25s-6.38-1.28-10.18.07l-.61.22c-3.8,1.35-6.44,3.48-7.93,6.38-1.49,2.9-1.61,6.11-.35,9.64,1.24,3.48,3.36,5.89,6.35,7.22,3,1.33,6.39,1.32,10.19-.03l.61-.22c3.8-1.35,6.44-3.49,7.92-6.41,1.48-2.92,1.6-6.12.37-9.61Z"/>
    <path class="cls-2" d="m72.8,509.14l-34.54,6.84-1.08-5.44,4.31-.85-.2-.99c-1.35-.42-2.7-1.28-4.03-2.58-1.33-1.3-2.27-3.32-2.81-6.05-.53-2.68-.37-4.98.47-6.88.85-1.9,2.04-3.4,3.59-4.49l-.2-.99c-1.85-.46-3.53-1.39-5.03-2.78-1.5-1.39-2.54-3.55-3.12-6.47-.46-2.31-.39-4.42.21-6.35.6-1.93,1.68-3.57,3.24-4.94,1.57-1.36,3.57-2.29,6.02-2.77l23.38-4.63,1.1,5.58-22.88,4.53c-2.31.46-4,1.49-5.08,3.1-1.08,1.61-1.38,3.61-.9,6.01.5,2.54,1.74,4.46,3.71,5.76,1.97,1.3,4.51,1.64,7.62,1.02l20.76-4.11,1.11,5.58-22.88,4.53c-2.31.46-4,1.49-5.08,3.1-1.08,1.61-1.38,3.61-.9,6.01.5,2.54,1.74,4.46,3.71,5.76,1.97,1.3,4.51,1.64,7.62,1.02l20.76-4.11,1.1,5.58Z"/>
    <path class="cls-2" d="m62.66,433.71c.19,3.55-.4,6.7-1.77,9.47-1.37,2.77-3.38,4.96-6.03,6.59-2.65,1.63-5.78,2.54-9.37,2.73l-.86.05c-3.64.19-6.87-.38-9.68-1.72-2.81-1.34-5.04-3.29-6.69-5.84-1.65-2.56-2.57-5.54-2.75-8.94-.18-3.31.38-6.27,1.65-8.88,1.28-2.62,3.2-4.71,5.76-6.29s5.61-2.46,9.16-2.65l2.59-.14,1.53,28.69c3.78-.35,6.67-1.73,8.68-4.14,2.01-2.41,2.92-5.35,2.74-8.8-.16-3.02-.98-5.31-2.46-6.86-1.48-1.56-3.2-2.71-5.16-3.48l2.11-5.02c1.52.64,3.06,1.56,4.62,2.75,1.55,1.19,2.89,2.78,4,4.76,1.12,1.98,1.76,4.56,1.92,7.72Zm-21.14,13.24l-1.22-22.86c-3.25.37-5.73,1.62-7.44,3.75-1.71,2.13-2.49,4.78-2.32,7.95.17,3.21,1.22,5.8,3.15,7.76,1.93,1.96,4.54,3.1,7.82,3.41Z"/>
    <path class="cls-2" d="m217.03,121.37l-24.26-26.48,4.93-2.98,21.23,23.85.86-.52-9.65-30.85,8.07-4.88,22.83,22.88.86-.52-11.25-29.88,4.93-2.98,12.18,33.78-8.32,5.03-22.9-22.84-.8.48,9.59,30.89-8.32,5.03Z"/>
    <path class="cls-2" d="m275.95,90.81c-3.26,1.41-6.42,1.96-9.49,1.64-3.07-.32-5.83-1.44-8.28-3.36-2.45-1.92-4.39-4.53-5.82-7.83l-.34-.79c-1.45-3.35-2.04-6.57-1.76-9.67.28-3.1,1.33-5.87,3.15-8.31,1.82-2.44,4.3-4.33,7.42-5.69,3.04-1.32,6.01-1.83,8.91-1.54,2.9.29,5.53,1.36,7.9,3.21,2.37,1.85,4.26,4.41,5.67,7.67l1.03,2.38-26.36,11.41c1.64,3.42,3.94,5.66,6.9,6.7,2.96,1.05,6.03.88,9.2-.49,2.78-1.2,4.64-2.76,5.58-4.69.94-1.93,1.43-3.94,1.46-6.05l5.44.24c-.07,1.65-.39,3.41-.97,5.28-.58,1.87-1.6,3.67-3.07,5.41-1.47,1.74-3.66,3.23-6.57,4.49Zm-19.77-15.21l21.01-9.1c-1.47-2.92-3.51-4.81-6.1-5.67-2.6-.86-5.35-.67-8.26.59-2.95,1.28-5.01,3.16-6.18,5.66-1.17,2.49-1.33,5.33-.47,8.52Z"/>
    <path class="cls-2" d="m299.32,80.65l-16.13-47.75,5.39-1.82,16.13,47.75-5.39,1.82Z"/>
    <path class="cls-2" d="m331.03,72.35c-3.31.82-6.46.84-9.44.07-2.98-.77-5.56-2.3-7.73-4.58-2.17-2.28-3.71-5.24-4.6-8.87l-.19-.77c-.91-3.68-.93-7.02-.07-10.03.86-3.01,2.44-5.55,4.72-7.62,2.28-2.07,5.08-3.52,8.39-4.33,3.26-.81,6.2-.89,8.8-.25,2.61.64,4.82,1.8,6.64,3.48,1.82,1.68,3.2,3.61,4.14,5.8l-5.11,2.45c-.65-1.62-1.58-3.02-2.78-4.21-1.21-1.18-2.68-2.01-4.43-2.47-1.75-.46-3.74-.41-5.97.14-2.28.56-4.2,1.58-5.74,3.05-1.54,1.47-2.6,3.29-3.18,5.46-.58,2.17-.54,4.58.12,7.24l.16.63c.66,2.66,1.75,4.81,3.27,6.46,1.52,1.65,3.3,2.77,5.35,3.35,2.05.58,4.21.59,6.5.03,3.4-.84,5.78-2.37,7.14-4.58,1.36-2.21,1.92-4.68,1.7-7.39l5.75-.16c.04,2.36-.37,4.71-1.22,7.05-.86,2.34-2.29,4.4-4.29,6.18-2.01,1.78-4.64,3.08-7.9,3.88Z"/>
    <path class="cls-2" d="m371.87,64.86c-3.53.43-6.73.08-9.6-1.07-2.87-1.15-5.23-2.97-7.06-5.48-1.83-2.51-2.97-5.59-3.42-9.26l-.11-.93c-.45-3.62-.08-6.88,1.08-9.78,1.17-2.9,3-5.25,5.51-7.06,2.51-1.81,5.53-2.93,9.05-3.36,3.52-.43,6.72-.08,9.6,1.07,2.87,1.15,5.23,2.98,7.06,5.52,1.83,2.53,2.97,5.61,3.42,9.23l.11.93c.45,3.67.09,6.94-1.08,9.82-1.17,2.88-3.01,5.22-5.52,7.03-2.51,1.81-5.53,2.93-9.05,3.36Zm-.62-5.07c3.72-.46,6.54-2,8.46-4.63,1.93-2.63,2.64-5.95,2.15-9.95l-.08-.64c-.49-4-1.99-7.05-4.5-9.13-2.51-2.09-5.62-2.9-9.33-2.44-3.67.45-6.48,1.99-8.43,4.63-1.95,2.63-2.68,5.95-2.18,9.95l.08.64c.49,4,2,7.04,4.53,9.13,2.53,2.08,5.63,2.9,9.3,2.45Z"/>
    <path class="cls-2" d="m398.11,60.74l.75-35.2,5.54.12-.09,4.39,1.01.02c.7-1.23,1.83-2.36,3.38-3.38,1.56-1.02,3.73-1.51,6.51-1.45,2.74.06,4.94.71,6.62,1.94,1.68,1.24,2.88,2.73,3.61,4.47l1.01.02c.85-1.71,2.12-3.15,3.8-4.31,1.68-1.16,4.01-1.72,6.98-1.65,2.35.05,4.4.57,6.16,1.57,1.75,1,3.13,2.41,4.12,4.23.99,1.82,1.46,3.98,1.41,6.48l-.5,23.83-5.69-.12.49-23.32c.05-2.35-.59-4.23-1.93-5.62-1.34-1.4-3.23-2.12-5.68-2.17-2.59-.05-4.73.74-6.42,2.38-1.69,1.65-2.57,4.05-2.64,7.22l-.45,21.16-5.69-.12.49-23.32c.05-2.35-.59-4.23-1.93-5.62-1.34-1.4-3.23-2.12-5.68-2.17-2.59-.05-4.73.74-6.42,2.38-1.69,1.65-2.57,4.05-2.64,7.22l-.45,21.16-5.69-.12Z"/>
    <path class="cls-2" d="m473.99,67.03c-3.51-.58-6.46-1.83-8.87-3.76s-4.12-4.36-5.15-7.3c-1.02-2.94-1.24-6.19-.66-9.74l.14-.85c.59-3.6,1.84-6.63,3.76-9.09,1.91-2.46,4.29-4.22,7.14-5.28,2.85-1.06,5.96-1.32,9.32-.77,3.27.54,6.04,1.71,8.32,3.52,2.28,1.81,3.92,4.14,4.91,6.97.99,2.84,1.2,6.01.62,9.52l-.42,2.56-28.35-4.66c-.47,3.77.25,6.89,2.18,9.37,1.93,2.48,4.6,4,8.01,4.56,2.98.49,5.39.18,7.23-.93,1.83-1.11,3.34-2.54,4.5-4.29l4.45,3.14c-.95,1.35-2.18,2.66-3.67,3.92-1.5,1.26-3.33,2.22-5.51,2.89-2.18.66-4.83.74-7.95.22Zm-8.39-23.49l22.59,3.72c.34-3.25-.35-5.94-2.06-8.07-1.72-2.13-4.14-3.45-7.26-3.97-3.17-.52-5.93-.05-8.26,1.41-2.33,1.47-4,3.77-5,6.91Z"/>
  </g>
</svg>